<svg width="748" height="657" viewBox="0 0 748 657" fill="none" xmlns="http://www.w3.org/2000/svg">
<path d="M115.827 497.327C115.781 497.282 115.691 497.282 115.645 497.236C115.555 497.191 115.509 497.146 115.464 497.1C115.373 497.055 115.328 497.01 115.237 496.919C115.192 496.874 115.147 496.828 115.101 496.738C115.011 496.693 114.965 496.647 114.965 496.557C114.92 496.511 114.875 496.466 114.875 496.375C114.784 496.285 114.739 496.149 114.739 496.013C112.653 487.268 110.568 478.523 108.437 469.733C79.1068 476.756 50.0028 485.003 21.1255 494.382C34.8615 500.997 48.3255 507.884 61.5175 514.998C61.9255 515.225 62.2428 515.632 62.3788 516.085C62.5148 516.584 62.4695 517.082 62.2428 517.49C54.9895 530.63 48.0535 543.815 41.4348 557.046C82.0988 543.815 123.307 533.031 164.923 524.785C149.011 515.27 132.6 506.072 115.827 497.327Z" fill="#1D6FB8"/>
<path d="M167.416 522.157C165.195 510.739 162.974 499.32 160.752 487.857C147.606 490.44 134.55 493.249 121.494 496.285C137.179 504.576 152.502 513.231 167.416 522.157Z" fill="#1D6FB8"/>
<path d="M167.099 444.857L167.053 444.812C167.008 444.767 166.917 444.721 166.827 444.676C166.781 444.631 166.736 444.585 166.691 444.54V444.495C166.6 444.449 166.555 444.359 166.509 444.313C166.509 444.268 166.509 444.268 166.464 444.268C166.464 444.178 166.419 444.132 166.373 444.087C166.373 444.042 166.373 444.042 166.373 444.042C166.328 443.996 166.328 443.906 166.283 443.86C166.283 443.815 166.283 443.77 166.283 443.77C166.283 443.724 166.237 443.724 166.237 443.724C166.237 443.679 166.237 443.679 166.237 443.679V443.634C164.605 434.753 162.973 425.872 161.387 417.037C141.712 420.616 122.128 424.739 102.635 429.361C105.491 441.368 108.301 453.376 111.112 465.428C111.248 466.017 111.384 466.561 111.52 467.15C111.656 467.739 111.792 468.328 111.928 468.917C113.877 477.118 115.781 485.274 117.731 493.475C131.784 490.122 145.883 487.086 160.027 484.322C160.616 484.187 161.205 484.096 161.749 484.005C162.339 483.869 162.883 483.779 163.472 483.643C181.016 480.29 198.651 477.345 216.285 474.807C200.373 464.477 184.053 454.554 167.28 444.948C167.235 444.902 167.144 444.902 167.099 444.857Z" fill="#1D6FB8"/>
<path d="M219.005 472.315C217.373 460.761 215.787 449.207 214.155 437.698C200.464 439.601 186.819 441.776 173.173 444.178C188.859 453.24 204.136 462.619 219.005 472.315Z" fill="#1D6FB8"/>
<path d="M685.622 516.085C685.758 515.632 686.075 515.225 686.483 514.998C699.675 507.884 713.139 500.997 726.875 494.382C697.998 485.003 668.894 476.756 639.563 469.733C637.432 478.523 635.347 487.268 633.262 496.013C633.262 496.149 633.216 496.285 633.126 496.375C633.126 496.466 633.08 496.511 633.035 496.557C633.035 496.602 632.99 496.693 632.944 496.738C632.899 496.783 632.854 496.829 632.808 496.874C632.763 496.919 632.718 496.964 632.627 497.01C632.627 497.055 632.582 497.1 632.536 497.1C632.491 497.146 632.4 497.191 632.355 497.236C632.31 497.236 632.219 497.282 632.174 497.327C615.4 506.072 598.99 515.27 583.078 524.785C624.694 533.031 665.902 543.815 706.566 557.046C699.947 543.815 693.011 530.63 685.758 517.49C685.531 517.082 685.486 516.584 685.622 516.085Z" fill="#1D6FB8"/>
<path d="M587.248 487.857C585.027 499.32 582.805 510.739 580.584 522.202C595.499 513.231 610.821 504.576 626.507 496.285C613.451 493.249 600.395 490.44 587.248 487.857Z" fill="#1D6FB8"/>
<path d="M630.27 493.475C632.219 485.274 634.123 477.118 636.072 468.917C636.208 468.328 636.344 467.739 636.48 467.15C636.616 466.561 636.752 465.972 636.888 465.428C639.699 453.376 642.51 441.368 645.366 429.361C625.872 424.739 606.288 420.616 586.613 417.037C585.027 425.872 583.395 434.753 581.763 443.588V443.634C581.718 443.906 581.627 444.132 581.445 444.359C581.4 444.404 581.4 444.449 581.355 444.495C581.264 444.585 581.173 444.676 581.083 444.721C580.992 444.767 580.947 444.812 580.902 444.857C580.856 444.857 580.766 444.902 580.72 444.948C563.947 454.554 547.627 464.477 531.715 474.807C549.35 477.345 566.984 480.29 584.528 483.643C585.118 483.779 585.662 483.869 586.251 484.005C586.795 484.096 587.384 484.187 587.973 484.322C602.117 487.086 616.216 490.122 630.27 493.475Z" fill="#1D6FB8"/>
<path d="M533.845 437.698C532.213 449.207 530.627 460.761 528.995 472.315C543.864 462.619 559.141 453.24 574.827 444.178C561.181 441.776 547.536 439.601 533.845 437.698Z" fill="#1D6FB8"/>
<path d="M578.544 441.187C579.995 432.941 581.491 424.649 582.987 416.357C583.077 415.768 583.168 415.179 583.304 414.59C583.395 414.001 583.485 413.412 583.621 412.823C585.797 400.68 587.973 388.491 590.149 376.348C447.213 350.612 300.787 350.612 157.851 376.348C160.027 388.537 162.203 400.68 164.379 412.823C164.469 413.412 164.605 414.001 164.696 414.59C164.787 415.179 164.923 415.768 165.013 416.357C166.509 424.649 167.96 432.941 169.456 441.187C184.144 438.559 198.923 436.203 213.656 434.119C214.245 434.028 214.88 433.938 215.469 433.847C216.059 433.802 216.648 433.711 217.237 433.62C321.277 419.348 426.723 419.348 530.763 433.62C531.352 433.711 531.941 433.802 532.531 433.847C533.12 433.938 533.755 434.028 534.344 434.119C549.077 436.203 563.856 438.559 578.544 441.187Z" fill="#1D6FB8"/>
<path fill-rule="evenodd" clip-rule="evenodd" d="M154.36 352.243C154.36 352.198 154.36 352.152 154.36 352.107C154.36 352.016 154.36 351.971 154.36 351.926V351.881C154.36 351.835 154.406 351.745 154.406 351.654C154.406 351.609 154.451 351.563 154.451 351.473C154.451 351.427 154.496 351.382 154.542 351.292C154.542 351.246 154.587 351.156 154.587 351.11C154.632 351.065 154.678 351.02 154.678 350.974C154.723 350.884 154.768 350.838 154.814 350.793C154.859 350.748 154.904 350.702 154.95 350.657C154.995 350.567 155.04 350.521 155.086 350.476C155.131 350.431 155.176 350.431 155.222 350.385C155.267 350.34 155.312 350.295 155.403 350.249C155.448 350.204 155.494 350.204 155.539 350.159C155.63 350.159 155.675 350.113 155.766 350.068C155.811 350.068 155.856 350.068 155.856 350.023C155.947 350.023 156.083 349.978 156.174 349.978L183.011 345.718C185.776 244.269 267.059 162.121 368.016 158.36L371.87 133.666C371.87 133.666 371.87 133.666 371.87 133.621C371.87 133.575 371.915 133.485 371.915 133.439C371.96 133.394 371.96 133.303 371.96 133.258C372.006 133.213 372.051 133.122 372.051 133.077C372.096 133.032 372.096 132.941 372.142 132.896C372.187 132.85 372.232 132.805 372.232 132.76C372.278 132.714 372.323 132.624 372.368 132.578C372.414 132.533 372.459 132.488 372.504 132.488C372.55 132.397 372.595 132.352 372.686 132.307C372.686 132.261 372.731 132.261 372.776 132.216C372.867 132.171 372.912 132.125 373.003 132.125C373.048 132.08 373.094 132.035 373.139 132.035C373.184 131.989 373.275 131.989 373.32 131.944C373.411 131.944 373.456 131.899 373.502 131.899C373.592 131.899 373.638 131.899 373.728 131.854C373.774 131.854 373.774 131.854 373.819 131.854C373.864 131.854 373.955 131.854 374 131.854C374.046 131.854 374.091 131.854 374.182 131.854C374.227 131.854 374.272 131.854 374.272 131.854C374.363 131.899 374.408 131.899 374.454 131.899C374.544 131.899 374.59 131.944 374.68 131.944C374.726 131.989 374.816 131.989 374.862 132.035C374.907 132.035 374.952 132.08 374.998 132.125C375.088 132.125 375.134 132.171 375.224 132.216C375.27 132.261 375.315 132.261 375.36 132.307C375.406 132.352 375.451 132.397 375.496 132.488C375.542 132.488 375.587 132.533 375.632 132.578C375.678 132.624 375.723 132.714 375.768 132.76C375.768 132.805 375.814 132.85 375.859 132.896C375.859 132.941 375.904 132.986 375.95 133.077C375.95 133.122 375.995 133.213 376.04 133.258C376.04 133.303 376.04 133.349 376.04 133.394C376.086 133.485 376.131 133.575 376.131 133.666L379.984 158.269C482.211 160.762 564.944 243.634 567.483 346.126L591.827 349.978C591.918 349.978 592.008 350.023 592.099 350.023C592.144 350.068 592.19 350.068 592.235 350.068C592.326 350.113 592.416 350.159 592.462 350.204C592.507 350.204 592.552 350.204 592.598 350.249C592.688 350.295 592.734 350.34 592.824 350.385C592.824 350.431 592.87 350.431 592.915 350.476C593.006 350.521 593.051 350.612 593.096 350.657C593.142 350.702 593.142 350.748 593.187 350.748C593.232 350.838 593.278 350.929 593.323 350.974C593.368 351.02 593.368 351.065 593.414 351.11C593.414 351.156 593.459 351.246 593.504 351.337C593.504 351.382 593.55 351.427 593.55 351.473C593.55 351.563 593.595 351.609 593.595 351.699C593.595 351.745 593.64 351.835 593.64 351.881V351.926C593.64 351.971 593.64 352.016 593.64 352.107C593.64 352.152 593.64 352.198 593.64 352.243C593.64 352.288 593.64 352.288 593.64 352.288C593.64 352.379 593.595 352.424 593.595 352.515C593.595 352.56 593.55 352.651 593.55 352.696C593.55 352.741 593.504 352.832 593.504 352.877C593.459 352.923 593.414 353.013 593.414 353.104C593.368 353.149 593.323 353.195 593.323 353.24C593.278 353.285 593.232 353.376 593.187 353.421C593.142 353.466 593.096 353.512 593.051 353.557C593.006 353.602 592.96 353.648 592.915 353.693C592.87 353.738 592.779 353.829 592.734 353.874C592.688 353.874 592.643 353.92 592.598 353.92C592.552 353.965 592.462 354.01 592.371 354.055C592.326 354.101 592.28 354.101 592.28 354.101C592.19 354.146 592.099 354.146 591.963 354.191C591.963 354.191 591.918 354.191 591.872 354.237H591.827L567.438 358.088C567.347 360.535 567.211 363.027 567.03 365.474C562.814 364.839 558.598 364.25 554.382 363.661C554.427 362.483 554.518 361.26 554.563 360.082L542.368 362.03C501.976 356.729 461.403 353.421 420.784 352.107H591.464L584.619 351.02L577.683 349.932L567.528 348.346L554.744 346.307L492.456 336.52L484.432 335.252L466.526 332.442L459.408 331.31L425.635 326.008L425.046 326.824C424.864 327.096 424.592 327.322 424.32 327.504L382.614 349.932L380.574 351.02L379.848 351.427C365.84 351.427 351.878 351.654 337.87 352.107H156.536L163.382 353.195L170.272 354.237L183.011 356.276L195.84 358.269L218.099 361.804C215.606 362.121 213.067 362.438 210.574 362.8L195.931 360.49C196.022 361.939 196.112 363.389 196.248 364.794C192.032 365.428 187.816 366.063 183.6 366.742C183.374 363.978 183.192 361.26 183.102 358.451L156.174 354.237C156.174 354.237 156.174 354.237 156.128 354.237C156.083 354.191 156.038 354.191 155.992 354.191C155.902 354.146 155.811 354.146 155.72 354.101C155.72 354.101 155.675 354.101 155.63 354.055C155.539 354.01 155.448 353.965 155.358 353.92L155.312 353.874C155.222 353.829 155.131 353.784 155.086 353.693C155.04 353.648 154.995 353.648 154.995 353.602C154.904 353.557 154.859 353.466 154.814 353.421C154.768 353.376 154.723 353.33 154.723 353.285C154.678 353.195 154.632 353.149 154.587 353.059C154.587 353.013 154.542 352.968 154.542 352.877C154.496 352.832 154.451 352.787 154.451 352.696C154.451 352.651 154.406 352.606 154.406 352.515C154.406 352.47 154.36 352.379 154.36 352.288C154.36 352.288 154.36 352.288 154.36 352.243ZM381.979 171.138L391.771 233.756C414.982 237.064 436.062 247.078 452.88 261.849L480.987 241.776C480.987 241.776 480.987 241.776 481.032 241.776C481.168 241.64 481.35 241.595 481.531 241.505C481.576 241.505 481.622 241.505 481.667 241.459C481.848 241.414 482.03 241.369 482.256 241.369C482.392 241.369 482.528 241.414 482.664 241.414C482.71 241.459 482.755 241.459 482.755 241.459C482.891 241.505 482.982 241.505 483.072 241.55C483.118 241.595 483.163 241.595 483.208 241.595C483.299 241.64 483.39 241.731 483.435 241.776C483.48 241.776 483.526 241.822 483.571 241.867C483.616 241.867 483.616 241.867 483.662 241.912C483.707 241.958 483.752 242.003 483.798 242.094C483.843 242.094 483.843 242.139 483.888 242.139V242.184C483.979 242.23 483.979 242.32 484.024 242.365C484.07 242.411 484.115 242.456 484.115 242.501C484.16 242.592 484.206 242.637 484.251 242.728C484.251 242.773 484.296 242.819 484.296 242.864C484.296 242.954 484.342 243.045 484.342 243.09C484.342 243.181 484.387 243.226 484.387 243.272C484.387 243.362 484.387 243.408 484.387 243.498C484.387 243.544 484.387 243.589 484.387 243.679C484.387 243.725 484.387 243.815 484.387 243.861C484.342 243.951 484.342 243.997 484.342 244.042C484.342 244.133 484.296 244.178 484.296 244.223C484.251 244.314 484.251 244.359 484.206 244.45C484.206 244.495 484.16 244.54 484.16 244.54C484.115 244.631 484.07 244.722 484.024 244.812C483.979 244.812 483.979 244.812 483.979 244.812L463.851 272.814C478.72 289.76 488.875 310.92 492.184 334.3L554.654 344.132C552.931 298.641 534.48 256.094 502.203 223.743C469.88 191.346 427.403 172.814 381.979 171.138ZM484.07 332.986C480.851 313.186 472.328 294.744 459.182 279.339L448.755 293.838C456.96 304.395 462.944 316.72 465.982 330.177L484.07 332.986ZM375.224 349.796L375.315 349.932L375.587 350.476L376.176 349.932L403.512 322.519L405.371 320.616L436.243 289.669L440.958 284.957L453.107 272.769L458.638 267.241L482.256 243.544L476.907 247.35L471.603 251.156L454.558 263.344L448.03 268.011L433.614 278.342L427.947 282.374L402.243 300.725L401.291 301.405L400.747 301.813L400.384 302.538L377.491 345.537L376.176 348.029L375.723 348.799L375.224 349.796ZM431.846 276.937L446.352 266.516C431.03 253.512 412.715 245.084 393.04 241.912L395.896 259.991C409.179 263.027 421.374 268.872 431.846 276.937ZM397.03 267.15L401.88 298.324L426.134 281.015C417.339 274.536 407.502 269.869 397.03 267.15ZM458.864 329.044C456.099 318.396 451.339 308.383 444.72 299.456L427.04 324.015L458.864 329.044ZM372.414 350.476L371.824 349.932L344.488 322.519L343.582 321.568L342.63 320.616L313.027 290.938L308.312 286.226L296.118 274.037L290.632 268.51L265.744 243.544L269.552 248.89L273.36 254.237L286.598 272.859L291.267 279.384L301.603 293.974L305.638 299.638L322.774 323.743L323.454 324.74L323.862 325.283L324.587 325.646L367.472 348.618L369.966 349.932L370.736 350.34L371.688 350.884L371.824 350.793L372.414 350.476ZM195.84 343.725L258.355 333.892C261.619 311.464 271.184 291.074 285.147 274.536L264.022 244.812C263.976 244.812 263.976 244.812 263.976 244.767C263.931 244.722 263.931 244.631 263.886 244.586C263.84 244.54 263.795 244.495 263.795 244.45C263.75 244.359 263.75 244.314 263.704 244.223C263.704 244.178 263.659 244.087 263.659 244.042C263.659 243.997 263.614 243.906 263.614 243.815C263.614 243.77 263.614 243.725 263.614 243.679C263.614 243.589 263.614 243.498 263.614 243.408C263.614 243.362 263.614 243.317 263.614 243.272C263.614 243.181 263.659 243.09 263.704 242.954V242.909C263.75 242.773 263.795 242.683 263.84 242.592C263.84 242.592 263.84 242.547 263.84 242.501C263.886 242.456 263.976 242.365 264.022 242.275C264.022 242.23 264.067 242.23 264.067 242.184C264.112 242.184 264.112 242.139 264.112 242.139C264.158 242.094 264.203 242.094 264.203 242.048C264.248 242.003 264.294 241.958 264.339 241.912C264.384 241.867 264.384 241.867 264.43 241.867C264.475 241.822 264.52 241.776 264.566 241.776C264.611 241.731 264.702 241.64 264.792 241.64C264.838 241.595 264.883 241.595 264.928 241.55C265.019 241.505 265.11 241.505 265.2 241.459C265.246 241.459 265.291 241.414 265.336 241.414C265.472 241.414 265.608 241.369 265.744 241.369C265.971 241.369 266.152 241.414 266.334 241.459C266.379 241.505 266.424 241.505 266.47 241.505C266.651 241.595 266.832 241.686 267.014 241.776L296.344 262.982C312.8 248.165 333.382 237.88 356.139 234.164L365.976 171.228C321.504 173.494 280.024 191.935 248.291 223.743C216.104 256.004 197.654 298.369 195.84 343.725ZM300.243 295.786L289.816 281.106C277.622 296.058 269.643 313.684 266.515 332.624L284.603 329.769C287.504 317.309 292.899 305.755 300.243 295.786ZM352.014 260.58L354.87 242.365C335.603 245.945 317.742 254.599 302.827 267.649L317.243 278.07C327.307 269.959 339.139 263.933 352.014 260.58ZM322.864 282.148L346.03 298.867L350.88 267.875C340.771 270.82 331.296 275.669 322.864 282.148ZM358.406 233.802L357.136 241.958L354.28 260.082L353.147 267.241L347.979 300.317L348.84 300.906C349.112 301.088 349.294 301.36 349.475 301.631L371.824 343.453L372.912 345.492L374 347.485V134.028L372.912 140.87L371.824 147.803L370.192 158.269L368.198 171.138L358.406 233.802ZM320.371 324.105L304.323 301.541C298.566 309.787 294.304 318.94 291.766 328.636L320.371 324.105Z" fill="#05497A"/>
<path d="M215.016 329.814C214.971 330.176 214.88 330.629 214.79 331.173C214.654 331.989 214.472 333.076 214.336 334.209C214.155 335.704 213.974 337.154 213.838 338.649C212.976 337.743 212.16 336.837 211.299 335.931C210.483 335.025 209.667 334.073 208.806 333.122C208.851 333.031 208.851 332.895 208.851 332.759C208.896 332.487 208.942 332.125 209.032 331.717C209.168 330.856 209.35 329.723 209.531 328.59C209.803 327.05 210.03 325.555 210.302 324.014C211.072 325.011 211.888 326.008 212.659 326.959C213.43 327.911 214.246 328.862 215.016 329.814Z" fill="#05497A"/>
<path d="M217.645 316.493C217.328 317.943 217.011 319.393 216.693 320.843C216.467 321.93 216.24 323.018 216.059 323.833C215.968 324.241 215.877 324.603 215.877 324.83C215.832 324.966 215.832 325.102 215.787 325.192C215.605 324.966 215.379 324.649 215.061 324.286C214.653 323.743 214.064 323.018 213.52 322.293C212.795 321.296 212.024 320.299 211.299 319.302C211.616 317.807 211.933 316.312 212.251 314.816C212.659 313.321 213.067 311.826 213.475 310.376C214.155 311.418 214.835 312.46 215.56 313.457C216.059 314.227 216.603 314.998 216.965 315.541C217.237 315.949 217.464 316.221 217.645 316.493Z" fill="#05497A"/>
<path d="M221.363 303.489C220.909 304.893 220.456 306.298 220.003 307.702C219.685 308.745 219.413 309.832 219.187 310.648C219.051 311.191 218.96 311.644 218.869 312.007C218.144 310.965 217.464 309.923 216.784 308.88C216.24 308.11 215.741 307.295 215.333 306.706C215.107 306.298 214.88 305.981 214.744 305.709C215.197 304.259 215.651 302.809 216.149 301.359C216.467 300.226 216.829 299.139 217.101 298.323C217.237 297.915 217.373 297.598 217.419 297.372C217.509 297.19 217.555 297.054 217.555 296.964C217.736 297.236 217.917 297.598 218.144 298.006C218.461 298.64 218.96 299.456 219.413 300.272C220.048 301.359 220.728 302.401 221.363 303.489Z" fill="#05497A"/>
<path d="M225.987 290.802C225.851 291.119 225.67 291.572 225.443 292.071C225.126 292.841 224.763 293.883 224.355 294.925C223.856 296.284 223.358 297.689 222.814 299.048C222.224 298.006 221.635 296.919 221 295.831C220.411 294.699 219.822 293.611 219.232 292.478C219.368 292.116 219.55 291.663 219.731 291.119C219.912 290.757 220.048 290.258 220.275 289.76C220.502 289.261 220.728 288.763 220.91 288.219C221.544 286.815 222.134 285.41 222.723 284.005C223.267 285.183 223.811 286.316 224.355 287.449C224.899 288.582 225.443 289.714 225.987 290.802Z" fill="#05497A"/>
<path d="M231.563 278.568C230.928 279.882 230.294 281.196 229.659 282.51C229.16 283.507 228.662 284.504 228.344 285.274C228.118 285.772 227.936 286.18 227.8 286.543C227.664 286.271 227.483 285.908 227.302 285.455C226.984 284.821 226.576 283.96 226.214 283.099C225.715 281.966 225.216 280.834 224.718 279.655C225.398 278.296 226.032 276.937 226.712 275.532C227.166 274.49 227.755 273.539 228.163 272.768C228.435 272.27 228.662 271.862 228.843 271.545C229.251 272.723 229.704 273.901 230.158 275.079C230.475 275.94 230.792 276.801 231.11 277.481C231.291 277.888 231.427 278.251 231.563 278.568Z" fill="#05497A"/>
<path d="M238.046 266.833C237.865 267.15 237.638 267.558 237.321 268.011C236.913 268.736 236.323 269.642 235.779 270.593C235.099 271.907 234.374 273.176 233.694 274.49C233.241 273.312 232.833 272.134 232.379 270.956C231.926 269.733 231.518 268.554 231.11 267.331C231.155 267.24 231.201 267.15 231.291 266.969C231.427 266.787 231.609 266.47 231.835 266.108C232.289 265.383 232.833 264.386 233.422 263.434C234.011 262.483 234.601 261.486 235.054 260.761C235.326 260.263 235.598 259.855 235.825 259.583C235.825 259.628 235.87 259.764 235.915 259.855C235.961 260.081 236.006 260.353 236.142 260.716C236.323 261.395 236.641 262.302 236.913 263.208C237.275 264.431 237.638 265.655 238.046 266.833Z" fill="#05497A"/>
<path d="M245.344 255.686C245.163 255.958 244.891 256.321 244.574 256.774C244.12 257.453 243.486 258.36 242.896 259.266C242.08 260.489 241.264 261.713 240.448 262.891C240.086 261.713 239.768 260.534 239.406 259.311C239.088 258.088 238.771 256.864 238.454 255.596C238.68 255.324 238.907 254.916 239.224 254.463C239.496 254.1 239.768 253.693 240.04 253.24C240.358 252.786 240.675 252.333 241.038 251.88C241.899 250.702 242.806 249.479 243.712 248.255C243.984 249.524 244.256 250.747 244.528 252.016C244.8 253.24 245.072 254.463 245.344 255.686Z" fill="#05497A"/>
<path d="M253.504 245.174C252.598 246.307 251.691 247.44 250.739 248.527C250.059 249.388 249.379 250.204 248.88 250.883C248.563 251.337 248.291 251.699 248.064 251.971C247.792 250.748 247.52 249.524 247.294 248.255C247.067 247.032 246.84 245.809 246.614 244.54C247.566 243.362 248.518 242.229 249.47 241.051C249.832 240.598 250.15 240.145 250.512 239.782C250.875 239.375 251.192 239.012 251.464 238.695C251.872 238.287 252.144 237.925 252.416 237.653C252.552 238.922 252.734 240.19 252.915 241.414C252.96 241.867 253.051 242.365 253.096 242.773C253.187 243.226 253.232 243.634 253.323 243.996C253.368 244.449 253.459 244.857 253.504 245.174Z" fill="#05497A"/>
<path d="M262.435 235.388C262.163 235.659 261.846 235.977 261.483 236.384C261.166 236.656 260.848 236.973 260.486 237.336C260.123 237.698 259.76 238.106 259.398 238.514C258.446 239.601 257.448 240.644 256.496 241.731C256.315 240.508 256.134 239.239 255.998 237.97C255.862 236.702 255.68 235.433 255.544 234.164C255.635 234.074 255.726 233.983 255.816 233.847C255.998 233.711 256.224 233.439 256.542 233.122C257.131 232.533 257.902 231.763 258.672 230.947C259.488 230.177 260.259 229.361 260.848 228.772C261.166 228.455 261.392 228.229 261.574 228.047C261.664 227.911 261.8 227.821 261.846 227.775C261.846 228.093 261.891 228.5 261.936 228.953C261.982 229.678 262.027 230.63 262.118 231.627C262.208 232.895 262.299 234.164 262.435 235.388Z" fill="#05497A"/>
<path d="M272 226.37C271.91 226.416 271.819 226.506 271.728 226.597C271.547 226.778 271.275 226.959 270.958 227.277C270.368 227.82 269.598 228.545 268.782 229.27C267.739 230.222 266.651 231.219 265.608 232.17C265.518 230.947 265.472 229.678 265.427 228.409C265.382 227.141 265.336 225.872 265.291 224.603C265.563 224.331 265.926 224.06 266.334 223.652C266.923 223.108 267.739 222.338 268.6 221.613C269.734 220.661 270.912 219.71 272.046 218.758C272 220.072 272 221.341 272 222.61C271.955 223.878 272 225.147 272 226.37Z" fill="#05497A"/>
<path d="M282.246 218.215C281.112 219.076 279.934 219.937 278.8 220.797C278.392 221.115 277.939 221.432 277.576 221.749C277.168 222.066 276.806 222.383 276.488 222.61C276.08 222.972 275.718 223.244 275.446 223.471C275.446 222.202 275.491 220.933 275.491 219.665C275.536 218.713 275.582 217.762 275.627 217.037C275.627 216.584 275.672 216.176 275.672 215.859C276.851 214.998 278.03 214.092 279.208 213.185C279.662 212.868 280.115 212.506 280.523 212.189C280.931 211.917 281.339 211.645 281.702 211.418C282.155 211.101 282.518 210.829 282.835 210.648C282.699 211.917 282.608 213.14 282.472 214.409C282.382 215.36 282.336 216.312 282.291 217.037C282.291 217.49 282.246 217.898 282.246 218.215Z" fill="#05497A"/>
<path d="M293.08 210.965C292.763 211.147 292.355 211.373 291.901 211.645C291.221 212.053 290.315 212.596 289.453 213.231C288.275 214.001 287.096 214.817 285.917 215.632C286.008 214.364 286.144 213.095 286.235 211.826C286.371 210.557 286.507 209.289 286.688 208.02C286.733 207.975 286.869 207.884 287.005 207.794C287.187 207.658 287.504 207.476 287.821 207.25C288.547 206.842 289.499 206.253 290.405 205.709C291.675 204.939 292.944 204.169 294.213 203.398C293.987 204.667 293.805 205.936 293.579 207.205C293.397 208.428 293.216 209.697 293.08 210.965Z" fill="#05497A"/>
<path d="M304.368 204.577C304.051 204.712 303.643 204.939 303.19 205.166C302.464 205.573 301.558 206.072 300.606 206.57C299.382 207.25 298.112 207.929 296.888 208.609C296.934 208.292 296.979 207.929 297.07 207.476C297.206 206.751 297.342 205.845 297.523 204.894C297.75 203.67 298.022 202.447 298.248 201.178C298.566 200.997 298.974 200.77 299.472 200.499C299.835 200.317 300.243 200.091 300.696 199.864C300.923 199.728 301.15 199.592 301.422 199.456C301.648 199.366 301.875 199.23 302.147 199.094C303.462 198.46 304.776 197.825 306.091 197.191C305.774 198.46 305.502 199.683 305.184 200.906C304.912 202.13 304.64 203.353 304.368 204.577Z" fill="#05497A"/>
<path d="M316.155 199.23C314.84 199.773 313.525 200.317 312.211 200.861C311.757 201.087 311.259 201.269 310.805 201.495C310.352 201.676 309.944 201.903 309.581 202.084C309.083 202.311 308.72 202.492 308.357 202.628C308.675 201.405 308.947 200.181 309.264 198.958C309.491 198.006 309.763 197.1 309.944 196.42C310.08 195.967 310.216 195.605 310.307 195.288C311.621 194.699 312.981 194.155 314.341 193.611C315.339 193.158 316.336 192.705 317.107 192.478C317.651 192.297 318.059 192.116 318.421 191.98C318.013 193.203 317.605 194.381 317.243 195.56C316.835 196.783 316.472 198.006 316.155 199.23Z" fill="#05497A"/>
<path d="M328.259 194.88C327.942 194.971 327.534 195.107 326.99 195.288C326.627 195.378 326.174 195.514 325.72 195.65C325.267 195.832 324.768 196.013 324.27 196.194C322.91 196.647 321.595 197.146 320.28 197.599C320.643 196.421 321.051 195.243 321.459 194.064C321.867 192.841 322.275 191.663 322.728 190.44C323.091 190.349 323.499 190.168 323.998 189.987C324.814 189.76 325.856 189.443 326.899 189.126C328.304 188.673 329.664 188.265 331.07 187.857C330.571 189.035 330.118 190.213 329.619 191.391C329.166 192.569 328.712 193.702 328.259 194.88Z" fill="#05497A"/>
<path d="M340.681 191.572C339.321 191.889 337.961 192.206 336.601 192.569C335.558 192.795 334.561 193.067 333.79 193.249C333.382 193.339 333.065 193.43 332.838 193.52C332.702 193.566 332.611 193.566 332.521 193.611C332.611 193.294 332.793 192.931 332.929 192.524C333.201 191.844 333.609 191.028 333.971 190.167C334.47 188.989 334.969 187.857 335.513 186.724C336.918 186.361 338.323 185.999 339.729 185.682C340.817 185.455 341.904 185.274 342.675 185.093C343.219 185.002 343.673 184.911 344.035 184.821C343.446 185.954 342.857 187.086 342.313 188.174C341.905 189.035 341.497 189.85 341.179 190.485C340.998 190.892 340.817 191.255 340.681 191.572Z" fill="#05497A"/>
<path d="M353.328 189.352C351.923 189.533 350.563 189.714 349.158 189.896C347.752 190.168 346.392 190.439 345.032 190.711C345.576 189.578 346.12 188.491 346.71 187.358C347.163 186.497 347.616 185.682 347.934 185.047C348.115 184.73 348.251 184.458 348.342 184.277C348.432 184.187 348.478 184.051 348.523 184.005C349.928 183.824 351.379 183.598 352.83 183.416C353.918 183.28 354.96 183.144 355.776 183.008C356.32 182.918 356.774 182.873 357.136 182.873C357.091 182.918 357.046 183.008 356.955 183.144C356.864 183.326 356.683 183.552 356.502 183.869C356.139 184.458 355.686 185.274 355.187 186.09C354.552 187.177 353.918 188.264 353.328 189.352Z" fill="#05497A"/>
<path d="M392.496 183.145C391.952 183.054 391.408 183.009 390.91 182.918C390.411 182.873 389.912 182.827 389.504 182.827C388.915 182.782 388.462 182.737 388.28 182.691V182.827C388.779 184.005 389.187 185.229 389.731 186.588C390.003 187.358 390.366 188.129 390.683 188.899C391.091 188.944 391.408 188.99 391.635 189.035C392.496 188.129 393.312 187.268 394.174 186.362C395.035 185.501 395.896 184.594 396.803 183.734C395.352 183.552 393.902 183.326 392.496 183.145Z" fill="#05497A"/>
<path d="M404.328 191.074C402.923 190.802 401.563 190.53 400.158 190.304C399.16 190.077 398.118 189.896 397.347 189.805C396.803 189.714 396.35 189.669 396.032 189.624C396.894 188.718 397.755 187.857 398.616 186.996C399.523 186.135 400.384 185.274 401.291 184.458C402.742 184.73 404.147 185.002 405.598 185.274C406.096 185.365 406.64 185.455 407.139 185.546C407.638 185.682 408.091 185.818 408.499 185.908C409.043 186.044 409.496 186.135 409.814 186.226C408.907 186.996 407.955 187.811 407.048 188.582C406.368 189.171 405.688 189.85 405.144 190.304C404.827 190.621 404.555 190.847 404.328 191.074Z" fill="#05497A"/>
<path d="M416.795 194.2C416.432 194.11 416.024 193.974 415.525 193.792C415.117 193.702 414.709 193.566 414.211 193.43C413.757 193.249 413.213 193.158 412.715 193.022C411.355 192.705 409.995 192.388 408.635 192.025C409.541 191.255 410.448 190.439 411.4 189.669C412.352 188.854 413.304 188.083 414.256 187.313C414.347 187.313 414.483 187.358 414.619 187.404C414.891 187.449 415.208 187.54 415.616 187.63C416.387 187.902 417.429 188.219 418.472 188.491C419.877 188.944 421.283 189.352 422.643 189.76C421.645 190.485 420.648 191.255 419.696 191.98C418.699 192.705 417.747 193.43 416.795 194.2Z" fill="#05497A"/>
<path d="M428.99 198.278C427.675 197.825 426.315 197.327 425.001 196.873C424.003 196.511 423.006 196.148 422.281 195.877C421.782 195.695 421.374 195.559 421.011 195.469C421.238 195.288 421.555 195.061 421.918 194.789C422.507 194.381 423.233 193.883 423.958 193.339C424.955 192.66 425.953 191.98 426.995 191.3C428.355 191.799 429.715 192.297 431.121 192.796C432.435 193.339 433.795 193.928 435.155 194.472C434.113 195.106 433.07 195.741 432.027 196.375C431.257 196.873 430.486 197.327 429.942 197.689C429.534 197.916 429.217 198.142 428.99 198.278Z" fill="#05497A"/>
<path d="M440.822 203.534C439.507 202.9 438.238 202.311 436.968 201.677C436.515 201.45 436.017 201.223 435.563 201.042C435.11 200.861 434.657 200.68 434.294 200.544C433.795 200.317 433.387 200.136 433.07 200C434.112 199.366 435.155 198.731 436.198 198.097C436.969 197.644 437.784 197.191 438.374 196.828C438.782 196.647 439.099 196.421 439.371 196.285C440.686 196.919 442.001 197.553 443.315 198.188C444.313 198.686 445.31 199.139 446.035 199.502C446.534 199.774 446.942 200 447.259 200.181C446.987 200.317 446.67 200.453 446.262 200.68C445.945 200.816 445.582 200.997 445.219 201.178C444.811 201.359 444.403 201.586 443.995 201.813C442.953 202.356 441.864 202.945 440.822 203.534Z" fill="#05497A"/>
<path d="M452.2 209.696C451.928 209.47 451.52 209.243 451.067 208.971C450.387 208.564 449.435 208.065 448.528 207.567C447.259 206.887 446.035 206.207 444.766 205.528C445.854 204.984 446.942 204.44 448.03 203.942C449.118 203.398 450.206 202.9 451.339 202.401C451.656 202.537 452.064 202.764 452.518 203.036C452.699 203.126 452.926 203.262 453.107 203.353C453.334 203.489 453.515 203.625 453.742 203.761C454.195 204.033 454.648 204.304 455.147 204.576C456.371 205.347 457.64 206.117 458.91 206.887C457.776 207.34 456.643 207.793 455.51 208.246C454.422 208.745 453.288 209.198 452.2 209.696Z" fill="#05497A"/>
<path d="M463.126 216.765C461.947 215.949 460.768 215.179 459.59 214.363C458.728 213.774 457.822 213.14 457.187 212.687C456.734 212.415 456.326 212.188 456.054 212.007C456.326 211.871 456.643 211.735 457.096 211.554C457.414 211.463 457.776 211.282 458.184 211.146C458.547 211.01 458.955 210.829 459.408 210.693C460.496 210.24 461.63 209.832 462.763 209.424C463.987 210.285 465.211 211.101 466.435 211.962C467.342 212.551 468.203 213.276 468.883 213.774C469.336 214.091 469.699 214.363 470.016 214.59C468.838 214.952 467.704 215.269 466.526 215.632C465.71 215.904 464.848 216.176 464.214 216.402C463.806 216.538 463.443 216.674 463.126 216.765Z" fill="#05497A"/>
<path d="M473.462 224.785C472.374 223.878 471.286 222.972 470.152 222.066C469.019 221.16 467.886 220.299 466.752 219.438C467.886 219.075 469.019 218.758 470.198 218.396C471.059 218.169 471.966 217.897 472.6 217.716C472.918 217.625 473.19 217.535 473.416 217.49C473.507 217.444 473.643 217.444 473.688 217.399C474.822 218.35 475.955 219.302 477.134 220.253C477.95 220.978 478.811 221.703 479.446 222.247C479.808 222.474 480.035 222.746 480.216 222.927C480.352 223.017 480.443 223.108 480.488 223.153C479.355 223.38 478.176 223.652 476.998 223.924C475.819 224.195 474.64 224.513 473.462 224.785Z" fill="#05497A"/>
<path d="M483.209 233.665C482.937 233.394 482.619 233.076 482.257 232.669C481.667 232.08 480.851 231.4 480.081 230.675C479.038 229.678 477.95 228.727 476.907 227.73C478.041 227.503 479.219 227.231 480.398 227.005C481.577 226.778 482.755 226.552 483.934 226.325C484.206 226.597 484.569 226.914 484.977 227.277C485.611 227.82 486.382 228.636 487.153 229.452C488.241 230.494 489.283 231.536 490.326 232.623C489.102 232.759 487.923 232.941 486.745 233.122C485.566 233.258 484.387 233.439 483.209 233.665Z" fill="#05497A"/>
<path d="M492.23 243.271C491.278 242.184 490.326 241.142 489.329 240.054C488.603 239.239 487.923 238.423 487.334 237.834C486.971 237.472 486.654 237.109 486.382 236.882C486.699 236.837 487.062 236.792 487.515 236.701C488.195 236.611 489.102 236.475 489.963 236.429C491.142 236.293 492.321 236.158 493.499 236.067C494.497 237.2 495.539 238.287 496.536 239.42C496.718 239.601 496.899 239.828 497.081 240.054C497.262 240.235 497.443 240.462 497.579 240.643C497.942 241.051 498.214 241.459 498.486 241.776C498.848 242.229 499.166 242.592 499.393 242.863C498.169 242.909 496.99 242.954 495.811 243.045C494.905 243.09 494.043 243.135 493.363 243.181C492.91 243.226 492.547 243.271 492.23 243.271Z" fill="#05497A"/>
<path d="M500.526 253.647C499.664 252.515 498.803 251.337 497.896 250.159C496.99 249.026 496.083 247.893 495.176 246.76C496.355 246.715 497.534 246.67 498.758 246.624C499.664 246.579 500.571 246.579 501.251 246.534C501.568 246.534 501.84 246.534 502.067 246.534C502.203 246.534 502.294 246.534 502.384 246.534C503.246 247.757 504.152 248.935 505.059 250.159C505.739 251.065 506.419 251.971 506.918 252.651C507.144 253.013 507.371 253.285 507.507 253.511C507.598 253.647 507.643 253.738 507.688 253.829C507.416 253.829 507.054 253.783 506.6 253.783C505.92 253.738 505.014 253.738 504.107 253.693C502.883 253.693 501.704 253.647 500.526 253.647Z" fill="#05497A"/>
<path d="M508.006 264.703C507.824 264.386 507.598 263.978 507.326 263.525C506.872 262.8 506.238 261.894 505.648 260.988C504.832 259.81 504.016 258.586 503.2 257.363C504.379 257.408 505.558 257.453 506.736 257.544C507.96 257.589 509.139 257.68 510.363 257.771C510.544 258.088 510.816 258.496 511.134 258.949C511.36 259.311 511.632 259.719 511.95 260.172C512.222 260.625 512.494 261.078 512.811 261.577C513.582 262.891 514.352 264.159 515.168 265.473C513.944 265.337 512.766 265.156 511.542 265.066C510.363 264.93 509.184 264.794 508.006 264.703Z" fill="#05497A"/>
<path d="M514.67 276.302C513.944 275.034 513.264 273.72 512.584 272.451C512.312 271.953 512.04 271.454 511.814 271.001C511.542 270.548 511.315 270.14 511.088 269.778C510.816 269.325 510.59 268.917 510.408 268.6C510.68 268.645 511.043 268.69 511.496 268.736C512.176 268.826 513.083 268.917 513.944 269.053C515.123 269.234 516.302 269.415 517.48 269.596C518.206 270.956 518.931 272.27 519.656 273.629C520.246 274.626 520.699 275.668 521.062 276.438C521.334 276.937 521.515 277.345 521.696 277.707C520.518 277.435 519.339 277.209 518.206 276.937C517.299 276.755 516.438 276.62 515.758 276.484C515.304 276.438 514.942 276.348 514.67 276.302Z" fill="#05497A"/>
<path d="M520.381 288.491C520.245 288.129 520.064 287.721 519.837 287.222C519.52 286.452 519.112 285.41 518.613 284.413C517.979 283.099 517.344 281.785 516.709 280.426C517.888 280.698 519.067 280.924 520.245 281.196C521.424 281.468 522.603 281.74 523.781 282.012C523.827 282.102 523.872 282.238 523.917 282.374C524.053 282.601 524.189 282.918 524.325 283.326C524.688 284.096 525.141 285.183 525.595 286.225C526.003 287.268 526.456 288.31 526.819 289.125C526.955 289.488 527.136 289.85 527.227 290.077C527.272 290.213 527.317 290.349 527.363 290.439C527.091 290.349 526.728 290.213 526.275 290.122C525.595 289.896 524.733 289.669 523.872 289.397C522.693 289.08 521.56 288.763 520.381 288.491Z" fill="#05497A"/>
<path d="M525.232 301.042C525.187 300.951 525.141 300.861 525.096 300.679C525.051 300.453 524.915 300.136 524.779 299.728C524.507 298.958 524.099 297.915 523.736 296.873C523.192 295.514 522.693 294.109 522.195 292.75C523.328 293.067 524.461 293.43 525.595 293.792C526.728 294.155 527.861 294.562 529.04 294.925C529.176 295.287 529.312 295.74 529.539 296.284C529.811 297.1 530.219 298.142 530.581 299.275C531.035 300.725 531.488 302.175 531.941 303.624C530.853 303.171 529.72 302.718 528.587 302.31C527.453 301.857 526.32 301.45 525.232 301.042Z" fill="#05497A"/>
<path d="M529.04 314.046C528.678 312.596 528.315 311.192 527.907 309.742C527.771 309.198 527.635 308.654 527.499 308.156C527.318 307.657 527.182 307.204 527.046 306.796C526.91 306.298 526.728 305.845 526.638 305.482C527.771 305.936 528.904 306.343 530.038 306.796C530.899 307.159 531.67 307.521 532.304 307.793C532.712 307.975 533.075 308.11 533.347 308.246C533.71 309.742 534.118 311.192 534.526 312.687C534.798 313.82 535.115 314.907 535.296 315.768C535.432 316.312 535.523 316.81 535.614 317.172C534.526 316.629 533.438 316.085 532.395 315.541C531.262 315.043 530.174 314.544 529.04 314.046Z" fill="#05497A"/>
<path d="M531.897 327.277C531.851 326.914 531.761 326.461 531.67 325.917C531.625 325.51 531.534 325.011 531.443 324.513C531.353 324.014 531.217 323.471 531.081 322.927C530.763 321.477 530.446 320.027 530.174 318.577C531.216 319.076 532.305 319.619 533.393 320.163C534.481 320.752 535.523 321.296 536.611 321.885C536.702 322.247 536.793 322.746 536.929 323.289C537.065 324.15 537.246 325.283 537.472 326.416C537.699 327.911 537.971 329.452 538.243 330.947C537.155 330.313 536.113 329.678 535.07 329.089C534.027 328.455 532.939 327.866 531.897 327.277Z" fill="#05497A"/>
<path d="M532.894 333.258C532.984 334.119 533.12 335.206 533.256 336.339C533.302 336.475 533.302 336.611 533.302 336.792C534.616 337.2 535.886 337.653 537.2 337.97C537.88 338.151 538.515 338.287 539.195 338.514C539.059 337.472 538.923 336.565 538.832 335.75C537.835 335.07 536.792 334.436 535.795 333.801C534.798 333.122 533.755 332.487 532.667 331.898C532.712 331.989 532.712 332.125 532.758 332.261C532.803 332.533 532.848 332.85 532.894 333.258Z" fill="#05497A"/>
<path d="M601.8 360.534L602.027 351.472C602.979 352.288 603.976 353.058 604.928 353.874C605.926 354.689 606.923 355.505 607.875 356.32C607.83 357.906 607.784 359.447 607.739 360.987C607.694 362.165 607.739 363.298 607.648 364.204C607.603 364.748 607.558 365.247 607.558 365.654C607.286 365.428 607.014 365.156 606.651 364.839C606.107 364.34 605.472 363.706 604.702 363.072C603.75 362.211 602.752 361.395 601.8 360.534Z" fill="#05497A"/>
<path d="M600.894 374.309L601.574 365.292C602.48 366.153 603.432 367.014 604.384 367.875C605.291 368.736 606.243 369.596 607.15 370.503C607.059 372.043 606.923 373.584 606.832 375.124C606.696 376.302 606.515 377.435 606.424 378.296C606.379 378.885 606.288 379.383 606.243 379.746C605.382 378.84 604.475 377.934 603.568 376.982C602.934 376.348 602.254 375.668 601.755 375.17C601.392 374.807 601.12 374.535 600.894 374.309Z" fill="#05497A"/>
<path d="M599.081 387.992C599.171 387.63 599.217 387.177 599.353 386.633C599.489 385.772 599.579 384.639 599.761 383.507C599.942 382.011 600.123 380.516 600.305 379.021C601.211 379.927 602.073 380.879 602.979 381.785C603.886 382.691 604.747 383.643 605.654 384.594C605.609 384.957 605.518 385.455 605.473 386.044C605.382 386.905 605.155 388.038 604.929 389.171C604.657 390.711 604.385 392.252 604.113 393.747C603.297 392.795 602.435 391.844 601.619 390.847C600.758 389.895 599.942 388.944 599.081 387.992Z" fill="#05497A"/>
<path d="M596.451 401.585C596.542 401.223 596.632 400.725 596.768 400.181C596.95 399.365 597.267 398.278 597.448 397.145C597.72 395.65 597.992 394.155 598.264 392.705C599.08 393.656 599.942 394.608 600.758 395.604C601.619 396.601 602.435 397.553 603.296 398.55L601.211 407.612C600.395 406.615 599.624 405.573 598.854 404.576C598.038 403.579 597.267 402.582 596.451 401.585Z" fill="#05497A"/>
<path d="M150.598 397.372L152.592 406.207C151.459 405.664 150.326 405.12 149.147 404.576C148.014 403.987 146.835 403.443 145.702 402.9C145.611 402.492 145.52 402.039 145.384 401.45C145.203 400.589 144.886 399.501 144.704 398.323C144.432 396.828 144.16 395.288 143.888 393.747C144.976 394.381 146.11 394.97 147.243 395.605C148.331 396.194 149.464 396.783 150.598 397.372Z" fill="#05497A"/>
<path d="M148.286 383.733C148.331 384.096 148.376 384.594 148.467 385.138C148.558 385.999 148.739 387.132 148.966 388.219C149.238 389.714 149.464 391.21 149.736 392.705C148.648 392.071 147.515 391.481 146.382 390.847C145.248 390.213 144.115 389.578 143.027 388.944C142.936 388.582 142.846 388.083 142.755 387.539C142.619 386.679 142.483 385.501 142.347 384.368C142.166 382.827 141.939 381.287 141.758 379.746C142.846 380.426 143.934 381.105 145.022 381.785C146.11 382.419 147.198 383.099 148.286 383.733Z" fill="#05497A"/>
<path d="M146.79 370.004C146.926 371.499 147.016 373.04 147.152 374.535C147.243 375.668 147.424 376.801 147.515 377.616C147.56 378.205 147.651 378.658 147.696 379.021C146.608 378.341 145.52 377.662 144.432 376.982C143.616 376.483 142.8 375.985 142.166 375.577C141.758 375.305 141.44 375.079 141.168 374.898L140.443 365.654C141.531 366.379 142.574 367.104 143.616 367.875C144.704 368.554 145.747 369.279 146.79 370.004Z" fill="#05497A"/>
<path d="M146.11 356.23C146.155 357.725 146.155 359.22 146.2 360.761C146.246 361.894 146.246 363.026 146.336 363.887C146.382 364.431 146.382 364.884 146.427 365.292C146.155 365.111 145.838 364.884 145.43 364.612C144.84 364.159 144.024 363.615 143.299 363.072C142.256 362.301 141.259 361.531 140.216 360.761L139.99 351.472C141.032 352.288 142.03 353.058 143.072 353.874C144.07 354.644 145.067 355.459 146.11 356.23Z" fill="#05497A"/>
<path d="M146.201 342.41L145.974 351.472C145.022 350.657 144.025 349.886 143.073 349.071C142.075 348.255 141.078 347.44 140.126 346.579C140.171 345.038 140.217 343.498 140.262 341.957C140.307 340.779 140.262 339.646 140.353 338.74C140.398 338.196 140.443 337.698 140.443 337.29C140.715 337.517 140.987 337.788 141.35 338.106C141.894 338.604 142.529 339.238 143.299 339.873C144.251 340.734 145.249 341.549 146.201 342.41Z" fill="#05497A"/>
<path d="M147.107 328.636L146.427 337.653C145.52 336.792 144.568 335.931 143.616 335.07C142.71 334.209 141.758 333.348 140.851 332.442C140.942 330.901 141.078 329.361 141.168 327.82C141.304 326.642 141.486 325.51 141.576 324.649C141.622 324.06 141.712 323.561 141.758 323.199C142.619 324.105 143.526 325.011 144.432 325.917C145.067 326.597 145.747 327.277 146.246 327.775C146.608 328.138 146.88 328.409 147.107 328.636Z" fill="#05497A"/>
<path d="M148.92 314.907C148.83 315.315 148.785 315.768 148.649 316.311C148.513 317.172 148.422 318.305 148.241 319.393C148.059 320.888 147.878 322.428 147.697 323.924C146.79 322.972 145.929 322.066 145.022 321.16C144.115 320.208 143.254 319.302 142.347 318.35C142.393 317.988 142.483 317.49 142.529 316.901C142.619 316.04 142.846 314.907 143.073 313.774C143.345 312.234 143.617 310.693 143.889 309.198C144.705 310.149 145.566 311.101 146.382 312.098C147.243 313.049 148.059 314.001 148.92 314.907Z" fill="#05497A"/>
<path d="M151.55 301.359C151.459 301.722 151.369 302.22 151.233 302.764C151.051 303.579 150.734 304.667 150.553 305.8C150.281 307.295 150.009 308.745 149.737 310.24C148.921 309.289 148.059 308.337 147.243 307.34C146.382 306.343 145.566 305.392 144.705 304.395L146.79 295.333C147.606 296.33 148.377 297.372 149.147 298.369C149.963 299.366 150.734 300.362 151.55 301.359Z" fill="#05497A"/>
<path d="M154.95 287.992C154.542 289.442 154.134 290.892 153.726 292.342C153.408 293.43 153.091 294.517 152.91 295.378C152.774 295.922 152.683 296.375 152.592 296.737C151.822 295.74 151.006 294.698 150.235 293.701C149.464 292.659 148.739 291.617 148.014 290.575L150.552 281.649C151.278 282.691 152.003 283.779 152.728 284.866C153.454 285.908 154.224 286.95 154.95 287.992Z" fill="#05497A"/>
<path d="M159.166 274.853L156.264 283.416C155.539 282.374 154.859 281.332 154.179 280.245C153.454 279.157 152.774 278.115 152.094 277.028C152.592 275.578 153.091 274.082 153.59 272.632C153.771 272.089 153.952 271.5 154.134 271.001C154.315 270.503 154.496 270.004 154.678 269.597C154.859 269.053 155.04 268.6 155.176 268.237C155.856 269.37 156.491 270.458 157.126 271.545C157.579 272.361 158.123 273.221 158.486 273.81C158.758 274.218 158.984 274.581 159.166 274.853Z" fill="#05497A"/>
<path d="M164.107 261.985C163.971 262.302 163.79 262.755 163.563 263.253C163.291 264.069 162.838 265.111 162.43 266.153C161.886 267.558 161.342 268.962 160.798 270.367C160.163 269.279 159.528 268.192 158.894 267.105C158.259 265.972 157.624 264.839 156.99 263.706C157.126 263.344 157.307 262.936 157.534 262.392C157.851 261.577 158.214 260.444 158.712 259.402C159.347 257.997 159.982 256.593 160.616 255.188C161.206 256.321 161.795 257.454 162.384 258.586C162.974 259.719 163.518 260.852 164.107 261.985Z" fill="#05497A"/>
<path d="M169.955 249.433C169.774 249.796 169.547 250.204 169.32 250.702C168.912 251.472 168.368 252.469 167.96 253.511C167.326 254.871 166.691 256.275 166.056 257.634C165.512 256.502 164.923 255.369 164.334 254.191C163.79 253.058 163.2 251.88 162.611 250.747C162.656 250.657 162.747 250.521 162.792 250.385C162.883 250.158 163.019 249.796 163.246 249.433C163.654 248.618 164.152 247.621 164.696 246.579C165.422 245.174 166.102 243.815 166.827 242.41C167.326 243.588 167.824 244.766 168.368 245.944C168.912 247.122 169.411 248.3 169.955 249.433Z" fill="#05497A"/>
<path d="M176.483 237.29C175.712 238.604 174.987 239.918 174.216 241.232C173.944 241.731 173.672 242.184 173.4 242.682C173.174 243.135 172.947 243.588 172.766 243.951C172.494 244.449 172.267 244.902 172.086 245.22C171.587 244.042 171.088 242.863 170.544 241.685C170.136 240.779 169.819 239.918 169.547 239.239C169.366 238.786 169.23 238.423 169.094 238.151L173.718 230.086C174.171 231.264 174.624 232.487 175.078 233.711C175.531 234.889 176.03 236.112 176.483 237.29Z" fill="#05497A"/>
<path d="M183.691 225.51C182.875 226.824 182.059 228.092 181.289 229.361C180.654 230.313 180.064 231.264 179.611 231.989C179.339 232.352 179.158 232.623 179.022 232.85C178.931 232.986 178.886 233.077 178.84 233.167C178.704 232.85 178.568 232.487 178.432 232.034C178.206 231.4 177.888 230.494 177.571 229.588C177.163 228.364 176.755 227.186 176.347 225.963C177.163 224.649 178.024 223.335 178.84 222.021C179.475 221.069 180.064 220.072 180.608 219.393C180.926 218.894 181.198 218.487 181.424 218.169C181.787 219.393 182.15 220.616 182.512 221.84C182.92 223.108 183.283 224.332 183.691 225.51Z" fill="#05497A"/>
<path d="M191.624 214.227C191.398 214.499 191.08 214.907 190.763 215.36C190.31 216.04 189.63 216.991 188.995 217.897C188.088 219.121 187.227 220.389 186.366 221.613C186.003 220.389 185.64 219.166 185.278 217.943C184.96 216.719 184.598 215.451 184.28 214.227C184.462 213.91 184.779 213.502 185.096 213.049C185.64 212.324 186.23 211.373 187 210.467C187.952 209.243 188.904 208.02 189.856 206.796C190.128 208.02 190.446 209.288 190.718 210.557C191.035 211.781 191.307 213.004 191.624 214.227Z" fill="#05497A"/>
<path d="M200.238 203.489C200.011 203.761 199.694 204.123 199.331 204.531C198.787 205.165 198.017 206.026 197.337 206.932C196.43 208.11 195.478 209.288 194.526 210.512C194.254 209.243 193.982 208.02 193.665 206.751C193.393 205.482 193.121 204.214 192.849 202.945C192.894 202.9 192.985 202.764 193.075 202.628C193.257 202.447 193.483 202.175 193.755 201.858C194.345 201.178 195.07 200.317 195.841 199.411C196.883 198.233 197.881 197.055 198.878 195.922C199.105 197.191 199.331 198.459 199.558 199.728C199.785 200.951 200.011 202.22 200.238 203.489Z" fill="#05497A"/>
<path d="M209.486 193.203C208.443 194.336 207.4 195.424 206.358 196.511C205.995 196.919 205.587 197.327 205.224 197.689C204.907 198.097 204.544 198.505 204.272 198.822C203.91 199.23 203.592 199.592 203.366 199.864C203.139 198.595 202.912 197.327 202.686 196.058C202.504 195.106 202.414 194.2 202.323 193.475C202.232 192.977 202.187 192.614 202.142 192.297L208.534 185.546C208.67 186.815 208.851 188.129 208.987 189.397C209.168 190.666 209.35 191.935 209.486 193.203Z" fill="#05497A"/>
<path d="M219.323 183.552L212.75 189.805C212.659 188.536 212.523 187.268 212.387 185.999C212.296 184.73 212.16 183.462 212.07 182.193C213.158 181.106 214.291 180.063 215.424 178.976C215.832 178.568 216.241 178.16 216.649 177.798C217.057 177.435 217.419 177.118 217.782 176.801C218.19 176.439 218.552 176.121 218.87 175.85C218.915 177.164 218.96 178.432 219.051 179.701C219.051 180.607 219.142 181.604 219.232 182.329C219.232 182.827 219.278 183.19 219.323 183.552Z" fill="#05497A"/>
<path d="M229.705 174.445C229.614 174.49 229.523 174.581 229.387 174.672C229.206 174.853 228.889 175.079 228.617 175.351C227.937 175.895 227.121 176.665 226.259 177.39C225.126 178.387 223.947 179.384 222.814 180.335C222.769 179.067 222.723 177.798 222.678 176.529C222.633 175.261 222.587 173.947 222.542 172.678C222.814 172.406 223.177 172.089 223.63 171.726C224.31 171.183 225.171 170.367 226.078 169.687C227.302 168.736 228.526 167.739 229.705 166.788C229.705 168.102 229.705 169.37 229.705 170.639C229.705 171.908 229.705 173.176 229.705 174.445Z" fill="#05497A"/>
<path d="M240.63 166.063C240.313 166.289 239.95 166.561 239.497 166.878C238.817 167.377 237.865 168.011 236.958 168.736C235.779 169.642 234.601 170.594 233.422 171.5C233.422 170.231 233.422 168.962 233.467 167.694C233.467 166.38 233.513 165.066 233.558 163.797C233.83 163.525 234.238 163.253 234.691 162.936C235.417 162.438 236.369 161.758 237.321 161.078C238.59 160.172 239.814 159.266 241.083 158.36C240.993 159.674 240.902 160.943 240.857 162.257C240.766 163.525 240.721 164.794 240.63 166.063Z" fill="#05497A"/>
<path d="M252.054 158.314C250.784 159.13 249.515 159.945 248.246 160.761C247.294 161.395 246.342 161.984 245.662 162.483C245.163 162.8 244.8 163.072 244.483 163.298C244.574 162.03 244.664 160.716 244.755 159.447C244.846 158.178 244.982 156.91 245.118 155.641C246.432 154.825 247.702 153.964 249.016 153.149C250.014 152.514 250.966 151.88 251.691 151.427C252.054 151.155 252.371 150.974 252.598 150.838C252.734 150.747 252.87 150.702 252.915 150.657C252.87 150.929 252.824 151.336 252.779 151.835C252.688 152.56 252.552 153.511 252.462 154.508C252.326 155.777 252.19 157.045 252.054 158.314Z" fill="#05497A"/>
<path d="M263.886 151.246L256.043 155.777C256.224 154.508 256.406 153.24 256.542 152.016C256.768 150.748 256.95 149.479 257.131 148.21C258.491 147.44 259.806 146.67 261.166 145.9C261.664 145.582 262.163 145.31 262.662 145.039C263.115 144.812 263.568 144.586 263.976 144.359C264.475 144.087 264.928 143.861 265.246 143.725C265.019 144.948 264.747 146.217 264.52 147.44C264.339 148.392 264.158 149.343 264.067 150.068C263.976 150.521 263.931 150.929 263.886 151.246Z" fill="#05497A"/>
<path d="M276.126 144.948C276.035 144.948 275.899 145.039 275.763 145.084C275.537 145.175 275.219 145.31 274.811 145.537C274.086 145.899 273.089 146.443 272.046 146.942C270.731 147.621 269.371 148.301 268.057 149.026C268.283 147.757 268.555 146.534 268.782 145.265C269.054 143.996 269.326 142.728 269.598 141.504C269.915 141.323 270.369 141.097 270.867 140.825C271.638 140.417 272.681 139.873 273.723 139.42C275.174 138.786 276.579 138.151 277.985 137.517C277.667 138.74 277.35 140.009 277.033 141.233C276.715 142.456 276.398 143.679 276.126 144.948Z" fill="#05497A"/>
<path d="M288.729 139.42C288.366 139.556 287.958 139.737 287.414 139.918C286.643 140.235 285.555 140.598 284.558 141.096C283.153 141.731 281.793 142.365 280.433 142.954C280.75 141.731 281.067 140.507 281.385 139.239C281.702 138.015 282.065 136.747 282.382 135.478C282.745 135.342 283.198 135.161 283.742 134.934C284.558 134.617 285.646 134.209 286.689 133.756C288.139 133.212 289.59 132.623 291.041 132.08C290.633 133.303 290.225 134.526 289.862 135.75C289.499 136.973 289.091 138.196 288.729 139.42Z" fill="#05497A"/>
<path d="M301.649 134.617C300.243 135.115 298.793 135.614 297.387 136.067C296.843 136.248 296.299 136.429 295.801 136.61C295.302 136.792 294.849 136.973 294.441 137.154C293.942 137.335 293.489 137.517 293.126 137.653C293.534 136.429 293.942 135.206 294.305 133.982C294.622 133.076 294.939 132.17 295.166 131.49C295.347 131.037 295.483 130.675 295.574 130.358L304.369 127.367C303.915 128.591 303.462 129.814 302.963 131.037C302.555 132.215 302.102 133.439 301.649 134.617Z" fill="#05497A"/>
<path d="M314.84 130.63L306.136 133.122C306.635 131.944 307.088 130.766 307.542 129.588C308.04 128.409 308.539 127.231 309.038 126.053C310.534 125.646 312.03 125.192 313.526 124.785C314.614 124.467 315.747 124.15 316.608 123.969C317.152 123.833 317.606 123.742 318.014 123.652C317.47 124.785 316.926 125.917 316.382 127.095C315.838 128.274 315.339 129.452 314.84 130.63Z" fill="#05497A"/>
<path d="M328.214 127.412L319.419 129.451C319.963 128.319 320.507 127.141 321.051 126.008C321.595 124.83 322.184 123.697 322.728 122.519C323.091 122.474 323.59 122.338 324.134 122.202C324.995 122.021 326.128 121.749 327.262 121.522C328.803 121.25 330.299 120.978 331.84 120.707C331.206 121.839 330.616 122.927 329.982 124.06C329.392 125.192 328.803 126.325 328.214 127.412Z" fill="#05497A"/>
<path d="M341.814 125.147C341.451 125.192 340.998 125.238 340.409 125.328C339.593 125.374 338.459 125.6 337.326 125.781C335.875 126.053 334.379 126.325 332.883 126.597C333.518 125.464 334.107 124.332 334.742 123.244C335.331 122.111 335.966 120.979 336.601 119.846C337.009 119.755 337.462 119.665 338.051 119.574C338.913 119.438 340.046 119.302 341.179 119.166C342.721 118.985 344.262 118.758 345.803 118.577C345.123 119.665 344.443 120.752 343.763 121.839C343.129 122.927 342.449 124.06 341.814 125.147Z" fill="#05497A"/>
<path d="M355.504 123.652C354.008 123.743 352.512 123.879 351.016 123.969C349.883 124.105 348.75 124.241 347.934 124.332C347.344 124.422 346.891 124.468 346.528 124.513C347.208 123.425 347.843 122.338 348.523 121.25C349.067 120.435 349.566 119.619 349.974 118.985C350.246 118.577 350.427 118.26 350.608 117.988L359.856 117.263C359.131 118.351 358.406 119.393 357.68 120.48C356.955 121.522 356.23 122.565 355.504 123.652Z" fill="#05497A"/>
<path d="M369.286 122.927C367.745 122.972 366.249 123.018 364.753 123.063C363.619 123.108 362.486 123.063 361.625 123.154C361.081 123.199 360.627 123.244 360.219 123.289C360.401 123.018 360.627 122.655 360.899 122.293C361.307 121.704 361.897 120.888 362.441 120.118C363.211 119.076 363.982 118.079 364.707 117.037L374.001 116.81C373.185 117.852 372.414 118.849 371.598 119.891C370.827 120.888 370.057 121.93 369.286 122.927Z" fill="#05497A"/>
<path d="M383.022 123.063L374 122.836C374.816 121.839 375.587 120.842 376.403 119.891C377.219 118.894 378.035 117.943 378.851 116.946C380.392 116.991 381.934 117.036 383.475 117.082C384.654 117.127 385.833 117.082 386.694 117.172C387.238 117.218 387.737 117.263 388.145 117.263C387.918 117.535 387.646 117.807 387.328 118.169C386.83 118.713 386.195 119.393 385.561 120.118C384.699 121.069 383.883 122.066 383.022 123.063Z" fill="#05497A"/>
<path d="M396.803 123.969L387.782 123.289C388.643 122.338 389.504 121.386 390.32 120.48C391.227 119.529 392.088 118.577 392.95 117.671C394.491 117.762 396.032 117.897 397.574 117.988C398.752 118.124 399.886 118.305 400.747 118.396C401.336 118.486 401.835 118.532 402.198 118.577C401.291 119.483 400.384 120.344 399.478 121.25C398.798 121.93 398.118 122.61 397.619 123.108C397.302 123.425 396.984 123.697 396.803 123.969Z" fill="#05497A"/>
<path d="M410.449 125.736C410.086 125.691 409.587 125.6 409.043 125.51C408.227 125.374 407.094 125.238 405.961 125.102C404.465 124.921 402.969 124.739 401.473 124.513C402.379 123.652 403.331 122.746 404.238 121.839C405.145 120.979 406.097 120.072 407.003 119.211C407.411 119.257 407.865 119.302 408.454 119.393C409.315 119.483 410.449 119.665 411.627 119.891C413.123 120.163 414.665 120.435 416.161 120.707C415.209 121.522 414.257 122.383 413.259 123.244C412.353 124.06 411.401 124.921 410.449 125.736Z" fill="#05497A"/>
<path d="M423.958 128.41C423.595 128.319 423.142 128.183 422.598 128.093C421.736 127.911 420.648 127.594 419.56 127.368C418.064 127.141 416.568 126.869 415.118 126.597C416.07 125.736 417.022 124.921 418.019 124.06C418.971 123.244 419.968 122.383 420.966 121.568L429.987 123.652C428.99 124.422 427.947 125.238 426.95 126.008C425.952 126.779 424.955 127.594 423.958 128.41Z" fill="#05497A"/>
<path d="M437.286 131.808C435.835 131.4 434.384 130.992 432.934 130.584C431.846 130.267 430.803 129.95 429.942 129.769C429.398 129.633 428.944 129.542 428.582 129.452C429.579 128.681 430.622 127.866 431.619 127.096C432.662 126.325 433.659 125.6 434.702 124.83L443.632 127.367C442.59 128.138 441.502 128.863 440.459 129.588C439.371 130.313 438.328 131.083 437.286 131.808Z" fill="#05497A"/>
<path d="M450.432 136.022L441.864 133.122C442.907 132.397 443.95 131.717 445.038 131.037C446.08 130.312 447.168 129.633 448.256 128.953C449.707 129.452 451.158 129.95 452.654 130.448C453.198 130.63 453.742 130.811 454.24 130.992C454.739 131.173 455.238 131.355 455.646 131.536C456.19 131.717 456.643 131.898 456.96 132.08C455.872 132.714 454.784 133.348 453.696 133.983C452.88 134.481 452.064 134.979 451.43 135.387C451.022 135.614 450.704 135.84 450.432 136.022Z" fill="#05497A"/>
<path d="M463.262 141.006C462.899 140.87 462.491 140.689 461.947 140.462C461.176 140.145 460.134 139.737 459.046 139.329C457.64 138.786 456.28 138.196 454.875 137.653C455.963 137.018 457.051 136.384 458.139 135.75C459.272 135.115 460.406 134.481 461.494 133.847C461.856 133.983 462.31 134.164 462.854 134.39C463.67 134.708 464.758 135.07 465.8 135.568C467.206 136.248 468.611 136.882 470.016 137.517C468.883 138.106 467.75 138.65 466.616 139.239C465.483 139.828 464.395 140.417 463.262 141.006Z" fill="#05497A"/>
<path d="M475.728 146.851C475.411 146.67 475.003 146.443 474.504 146.217C473.734 145.809 472.736 145.265 471.694 144.857C470.334 144.223 468.928 143.589 467.568 142.954C468.702 142.411 469.835 141.822 470.968 141.233C472.147 140.643 473.28 140.1 474.459 139.511C474.55 139.556 474.686 139.601 474.822 139.692C475.048 139.783 475.411 139.919 475.774 140.145C476.544 140.508 477.587 141.051 478.63 141.595C479.99 142.275 481.35 143 482.755 143.725C481.576 144.223 480.398 144.721 479.219 145.265C478.04 145.809 476.907 146.307 475.728 146.851Z" fill="#05497A"/>
<path d="M487.878 153.421C486.563 152.65 485.248 151.88 483.934 151.155C483.435 150.883 482.982 150.566 482.483 150.34C482.03 150.068 481.576 149.841 481.214 149.66C480.715 149.388 480.307 149.161 479.944 149.026C481.123 148.482 482.302 147.983 483.48 147.44C484.387 147.077 485.248 146.715 485.928 146.443C486.382 146.262 486.744 146.126 487.016 145.99L495.086 150.657C493.862 151.11 492.638 151.563 491.459 152.016C490.235 152.469 489.056 152.922 487.878 153.421Z" fill="#05497A"/>
<path d="M499.574 160.625C498.304 159.81 497.035 158.994 495.766 158.179C494.814 157.59 493.862 156.955 493.182 156.502C492.819 156.276 492.502 156.094 492.32 155.958C492.184 155.868 492.048 155.822 491.958 155.777C492.275 155.641 492.638 155.505 493.091 155.369C493.771 155.097 494.632 154.826 495.539 154.508C496.763 154.055 497.942 153.648 499.166 153.24C500.48 154.101 501.75 154.916 503.064 155.777C504.062 156.411 505.014 157.001 505.739 157.544C506.192 157.861 506.6 158.133 506.918 158.36C505.694 158.722 504.47 159.085 503.246 159.447C502.022 159.855 500.798 160.218 499.574 160.625Z" fill="#05497A"/>
<path d="M510.862 168.6C510.59 168.328 510.182 168.056 509.728 167.739C509.048 167.241 508.096 166.606 507.19 165.927C505.966 165.066 504.742 164.205 503.518 163.299C504.742 162.936 505.966 162.574 507.144 162.256C508.414 161.894 509.638 161.532 510.862 161.214C511.179 161.441 511.587 161.713 512.04 162.03C512.766 162.574 513.718 163.208 514.624 163.933C515.848 164.884 517.072 165.836 518.296 166.788C517.027 167.105 515.803 167.377 514.534 167.694C513.31 167.966 512.086 168.283 510.862 168.6Z" fill="#05497A"/>
<path d="M521.606 177.254C521.288 176.982 520.971 176.71 520.518 176.303C519.883 175.759 519.022 174.989 518.16 174.309C516.936 173.403 515.758 172.451 514.579 171.5C515.848 171.228 517.072 170.956 518.296 170.639C519.566 170.367 520.835 170.095 522.104 169.823C522.15 169.869 522.286 169.959 522.422 170.05C522.603 170.231 522.875 170.458 523.238 170.729C523.872 171.318 524.734 172.043 525.64 172.814C526.819 173.856 527.952 174.853 529.131 175.85C527.862 176.076 526.592 176.303 525.323 176.529C524.099 176.756 522.83 177.028 521.606 177.254Z" fill="#05497A"/>
<path d="M531.806 186.497C530.718 185.455 529.63 184.413 528.542 183.371C528.134 183.009 527.726 182.601 527.318 182.238C526.955 181.876 526.547 181.559 526.23 181.287C525.822 180.924 525.459 180.607 525.187 180.335C526.456 180.154 527.68 179.927 528.95 179.701C529.947 179.52 530.854 179.384 531.579 179.293C532.032 179.248 532.44 179.157 532.758 179.112L539.467 185.546C538.198 185.682 536.883 185.863 535.614 185.999C534.344 186.18 533.075 186.361 531.806 186.497Z" fill="#05497A"/>
<path d="M541.462 196.33L535.251 189.805C536.475 189.669 537.744 189.533 539.014 189.397C540.283 189.307 541.552 189.171 542.822 189.08C543.864 190.213 544.952 191.3 545.995 192.433C546.403 192.841 546.811 193.294 547.174 193.656C547.536 194.11 547.899 194.472 548.171 194.789C548.534 195.242 548.851 195.605 549.123 195.922C547.854 195.967 546.584 196.013 545.315 196.058C544.363 196.103 543.366 196.194 542.686 196.239C542.187 196.284 541.779 196.33 541.462 196.33Z" fill="#05497A"/>
<path d="M550.529 206.751C550.483 206.706 550.393 206.57 550.302 206.434C550.121 206.253 549.939 205.981 549.622 205.664C549.078 205.03 548.353 204.169 547.582 203.308C546.63 202.175 545.633 201.042 544.635 199.864C545.905 199.819 547.174 199.774 548.443 199.728C549.713 199.683 551.027 199.638 552.297 199.592C552.569 199.864 552.886 200.227 553.249 200.68C553.793 201.359 554.609 202.22 555.289 203.127C556.241 204.35 557.193 205.573 558.145 206.797C556.875 206.797 555.606 206.751 554.337 206.751C553.067 206.751 551.798 206.751 550.529 206.751Z" fill="#05497A"/>
<path d="M558.915 217.716C558.688 217.444 558.416 217.036 558.099 216.583C557.555 215.904 556.966 214.952 556.24 214.046C555.334 212.868 554.382 211.69 553.475 210.512C554.744 210.512 556.014 210.512 557.283 210.557C558.598 210.557 559.867 210.602 561.136 210.648C561.408 210.92 561.68 211.327 562.043 211.78C562.542 212.505 563.176 213.457 563.856 214.408C564.763 215.677 565.67 216.946 566.576 218.169C565.262 218.124 563.992 218.033 562.723 217.943C561.454 217.852 560.184 217.807 558.915 217.716Z" fill="#05497A"/>
<path d="M566.622 229.18C565.806 227.911 564.99 226.642 564.174 225.328C563.585 224.377 562.95 223.425 562.451 222.746C562.134 222.292 561.862 221.93 561.635 221.613C562.905 221.703 564.219 221.749 565.489 221.839C566.758 221.975 568.027 222.111 569.297 222.247C570.113 223.516 570.929 224.83 571.79 226.144C572.425 227.141 573.059 228.092 573.513 228.817C573.739 229.18 573.921 229.497 574.057 229.723C574.147 229.859 574.238 229.995 574.283 230.086C573.966 229.995 573.558 229.95 573.059 229.905C572.379 229.814 571.382 229.723 570.43 229.587C569.161 229.451 567.891 229.316 566.622 229.18Z" fill="#05497A"/>
<path d="M573.649 241.051L569.161 233.167C570.43 233.348 571.654 233.529 572.923 233.711C574.193 233.892 575.417 234.073 576.686 234.3C577.457 235.614 578.227 236.973 578.998 238.332C579.315 238.831 579.587 239.329 579.859 239.828C580.086 240.281 580.313 240.734 580.539 241.142C580.811 241.64 580.993 242.093 581.174 242.41C579.95 242.184 578.681 241.912 577.457 241.685C576.55 241.504 575.553 241.323 574.873 241.232C574.374 241.142 573.966 241.096 573.649 241.051Z" fill="#05497A"/>
<path d="M579.995 253.33C579.95 253.24 579.859 253.104 579.814 252.968C579.723 252.741 579.587 252.379 579.36 252.016C578.998 251.291 578.454 250.249 577.955 249.252C577.275 247.893 576.595 246.579 575.915 245.22C577.139 245.446 578.408 245.718 579.632 245.945C580.902 246.217 582.171 246.488 583.395 246.76C583.576 247.123 583.803 247.531 584.075 248.074C584.483 248.845 584.982 249.887 585.48 250.929C586.115 252.333 586.75 253.738 587.384 255.188C586.115 254.871 584.891 254.554 583.667 254.191C582.443 253.919 581.219 253.602 579.995 253.33Z" fill="#05497A"/>
<path d="M585.48 265.972C585.344 265.609 585.163 265.156 584.982 264.658C584.619 263.888 584.256 262.8 583.803 261.758C583.168 260.399 582.534 258.994 581.944 257.635C583.168 257.952 584.392 258.269 585.616 258.586C586.886 258.949 588.11 259.266 589.379 259.628C589.56 259.946 589.742 260.399 589.923 260.942C590.24 261.758 590.694 262.845 591.102 263.933C591.691 265.383 592.235 266.833 592.824 268.237C591.6 267.875 590.376 267.467 589.107 267.105C587.928 266.697 586.704 266.334 585.48 265.972Z" fill="#05497A"/>
<path d="M590.24 278.93C589.742 277.48 589.288 276.076 588.79 274.626C588.608 274.082 588.427 273.538 588.246 273.04C588.064 272.542 587.883 272.089 587.747 271.726C587.52 271.182 587.339 270.729 587.203 270.367C588.427 270.774 589.651 271.182 590.875 271.545C591.827 271.862 592.688 272.179 593.368 272.406C593.822 272.587 594.184 272.723 594.502 272.813L597.448 281.649C596.27 281.196 595.046 280.697 593.822 280.244C592.643 279.791 591.419 279.383 590.24 278.93Z" fill="#05497A"/>
<path d="M594.23 292.161L591.736 283.416C592.915 283.914 594.094 284.368 595.272 284.866C596.451 285.364 597.63 285.817 598.808 286.316C599.216 287.811 599.624 289.306 600.078 290.802C600.395 291.934 600.712 293.022 600.894 293.883C601.03 294.472 601.12 294.925 601.211 295.333C600.078 294.789 598.899 294.245 597.766 293.701C596.587 293.158 595.408 292.659 594.23 292.161Z" fill="#05497A"/>
<path d="M597.403 305.573L595.408 296.737C596.542 297.281 597.675 297.825 598.854 298.368C599.987 298.958 601.166 299.501 602.299 300.045C602.39 300.453 602.48 300.906 602.616 301.495C602.798 302.31 603.115 303.443 603.296 304.621C603.568 306.117 603.84 307.657 604.112 309.198C603.024 308.563 601.891 307.974 600.758 307.34C599.67 306.751 598.536 306.162 597.403 305.573Z" fill="#05497A"/>
<path d="M599.715 319.211C599.67 318.803 599.625 318.35 599.534 317.807C599.443 316.946 599.262 315.813 599.035 314.725C598.763 313.23 598.537 311.735 598.265 310.24C599.353 310.874 600.486 311.463 601.619 312.097C602.753 312.732 603.886 313.366 604.974 313.955C605.065 314.363 605.155 314.816 605.246 315.405C605.382 316.266 605.518 317.444 605.654 318.577C605.835 320.117 606.062 321.658 606.243 323.199C605.155 322.519 604.067 321.839 602.979 321.16C601.891 320.525 600.803 319.846 599.715 319.211Z" fill="#05497A"/>
<path d="M601.211 332.941C601.075 331.4 600.984 329.905 600.848 328.41C600.758 327.277 600.576 326.144 600.486 325.328C600.44 324.739 600.35 324.286 600.304 323.924C601.392 324.603 602.48 325.283 603.568 325.917C604.384 326.461 605.2 326.96 605.835 327.367C606.243 327.639 606.56 327.866 606.832 328.047L607.558 337.29C606.47 336.565 605.427 335.84 604.384 335.07C603.296 334.345 602.254 333.666 601.211 332.941Z" fill="#05497A"/>
<path d="M601.891 346.715C601.846 345.22 601.846 343.679 601.8 342.184C601.755 341.051 601.755 339.918 601.664 339.057C601.619 338.514 601.619 338.061 601.574 337.653C601.846 337.834 602.163 338.061 602.571 338.332C603.16 338.786 603.976 339.329 604.702 339.873C605.744 340.643 606.742 341.414 607.784 342.184L608.011 351.473C606.968 350.657 605.971 349.887 604.928 349.071C603.931 348.301 602.934 347.485 601.891 346.715Z" fill="#05497A"/>
<path d="M374 67.9204L385.606 89.6694L397.166 111.373L374 99.6377L350.835 111.373L362.395 89.6694L374 67.9204Z" fill="#05497A"/>
<path d="M643.28 352.922L628.275 361.622L613.27 370.276V352.922V335.568L628.275 344.223L643.28 352.922Z" fill="#05497A"/>
<path d="M104.72 352.922L119.726 344.223L134.731 335.568V352.922V370.276L119.726 361.622L104.72 352.922Z" fill="#05497A"/>
<path d="M553.974 171.273L551.798 179.52L549.576 187.721L543.592 181.74L537.563 175.714L545.768 173.494L553.974 171.273Z" fill="#05497A"/>
<path d="M194.163 171.455L202.368 173.629L210.574 175.85L204.544 181.876L198.56 187.902L196.384 179.656L194.163 171.455Z" fill="#05497A"/>
<path fill-rule="evenodd" clip-rule="evenodd" d="M321.323 390.485C321.957 400.317 315.611 408.518 304.731 409.198C292.445 410.014 286.915 401.087 286.416 393.521C285.917 386.18 290.179 376.393 303.008 375.532C313.661 374.853 320.688 380.652 321.323 390.485ZM315.429 392.433C314.795 382.827 308.901 377.209 301.875 377.662C296.979 377.979 291.539 381.106 292.219 391.799C292.808 400.725 298.203 407.476 306.408 406.932C309.4 406.751 316.245 404.848 315.429 392.433Z" fill="white"/>
<path d="M356.048 397.055C355.686 397.055 355.595 397.236 355.504 397.916C355.368 398.686 354.824 399.955 354.144 400.816C352.467 402.855 350.2 403.353 346.347 403.444C340.635 403.625 332.702 398.822 332.384 388.582C332.248 384.413 332.928 380.335 335.966 377.345C337.779 375.532 340.227 374.536 343.944 374.4C347.888 374.264 351.243 375.351 352.739 376.801C353.827 377.889 354.416 379.384 354.507 380.698C354.552 381.287 354.643 381.649 354.96 381.649C355.368 381.604 355.459 381.287 355.459 380.607C355.504 379.746 355.414 377.39 355.459 375.986C355.459 374.49 355.595 373.947 355.595 373.584C355.595 373.357 355.414 373.131 354.915 373.131C353.646 373.04 352.24 372.678 350.608 372.497C348.613 372.315 347.027 372.179 344.398 372.27C338.006 372.497 333.971 374.354 330.979 377.299C326.99 381.196 326.264 386.316 326.355 389.216C326.491 393.385 327.76 398.142 332.067 401.722C336.056 404.984 341.043 406.117 346.936 405.936C349.656 405.845 352.92 405.437 354.598 404.712C355.323 404.395 355.504 404.169 355.686 403.398C356.048 401.948 356.456 398.188 356.456 397.689C356.411 397.327 356.32 397.009 356.048 397.055Z" fill="white"/>
<path d="M382.568 398.822C382.296 398.822 382.206 399.003 382.115 399.502C381.798 401.269 381.299 402.175 380.211 402.673C379.078 403.217 377.264 403.217 376.176 403.217C371.779 403.217 371.099 402.583 371.008 399.592C370.963 398.369 371.008 394.427 370.963 392.932V389.533C370.963 389.307 371.008 389.126 371.235 389.126C372.278 389.126 376.494 389.126 377.31 389.216C378.896 389.397 379.486 390.032 379.712 390.893C379.848 391.436 379.848 392.025 379.894 392.433C379.894 392.66 379.984 392.841 380.302 392.841C380.664 392.841 380.664 392.343 380.664 392.025C380.664 391.708 380.8 389.986 380.846 389.126C380.982 386.951 381.163 386.271 381.163 385.999C381.163 385.727 381.027 385.637 380.846 385.637C380.664 385.637 380.483 385.863 380.166 386.226C379.803 386.633 379.168 386.769 378.126 386.86C377.128 386.951 372.187 386.951 371.28 386.951C371.008 386.951 370.963 386.815 370.963 386.498L370.918 375.623C370.918 375.306 371.008 375.17 371.235 375.17C372.096 375.17 376.584 375.261 377.31 375.351C379.44 375.578 379.894 376.122 380.211 376.892C380.392 377.39 380.438 378.115 380.438 378.432C380.438 378.795 380.528 379.021 380.846 379.021C381.118 379.021 381.208 378.75 381.254 378.568C381.344 378.025 381.435 376.121 381.48 375.714C381.571 373.72 381.798 373.222 381.798 372.904C381.798 372.723 381.752 372.542 381.526 372.542C381.344 372.542 381.072 372.678 380.846 372.723C380.528 372.814 379.848 372.859 379.032 372.95C378.216 372.995 369.648 373.04 368.288 373.04C367.699 373.04 366.702 372.995 365.614 372.995C364.526 372.995 363.302 372.95 362.123 372.95C361.488 372.95 361.171 373.04 361.171 373.312C361.171 373.629 361.443 373.72 361.896 373.72C362.531 373.72 363.256 373.765 363.574 373.856C364.979 374.128 365.342 374.808 365.432 376.303C365.523 377.662 365.523 378.885 365.568 385.41V392.977C365.614 396.919 365.614 400.317 365.387 402.13C365.251 403.353 365.024 404.305 364.163 404.486C363.755 404.576 363.256 404.667 362.622 404.667C362.123 404.667 361.942 404.803 361.942 405.03C361.942 405.301 362.214 405.437 362.803 405.437C363.664 405.437 364.752 405.347 365.75 405.347C366.792 405.301 367.744 405.301 368.198 405.301C369.467 405.301 370.827 405.347 372.64 405.392C374.499 405.437 376.856 405.528 380.075 405.528C381.707 405.528 382.07 405.528 382.387 404.395C382.614 403.534 382.931 400.589 382.931 399.638C382.931 399.184 382.931 398.822 382.568 398.822Z" fill="white"/>
<path fill-rule="evenodd" clip-rule="evenodd" d="M420.331 405.981C420.331 406.298 419.923 406.389 418.336 406.343C416.795 406.298 413.667 406.207 410.267 406.072C409.496 405.981 408.952 405.981 408.998 405.664C408.998 405.437 409.179 405.347 409.587 405.301C409.904 405.211 410.222 404.848 409.995 404.35L406.822 395.106C406.731 394.925 406.595 394.835 406.368 394.835L396.803 394.563C396.622 394.563 396.531 394.653 396.44 394.925L393.947 400.997C393.494 402.039 393.267 403.081 393.267 403.579C393.222 404.395 393.584 404.939 394.944 404.984H395.579C396.078 404.984 396.214 405.075 396.214 405.347C396.214 405.709 395.942 405.754 395.443 405.754C394.083 405.709 392.27 405.573 390.91 405.528C390.456 405.528 388.099 405.573 385.878 405.528C385.288 405.483 385.062 405.392 385.062 405.075C385.062 404.803 385.243 404.712 385.56 404.758C385.968 404.758 386.558 404.712 386.92 404.667C388.87 404.486 389.731 403.036 390.638 400.906L402.107 374.173C402.651 372.95 402.923 372.497 403.331 372.497C403.739 372.497 403.965 372.904 404.373 373.901C405.371 376.303 411.763 394.019 414.347 400.634C415.888 404.531 417.112 405.165 417.973 405.392C418.653 405.528 419.288 405.618 419.787 405.618C420.15 405.618 420.331 405.664 420.331 405.981ZM405.824 392.388L402.243 381.695C402.198 381.513 402.198 381.287 402.062 381.287C401.926 381.287 401.835 381.513 401.789 381.649L397.573 392.116C397.528 392.297 397.574 392.433 397.755 392.433L405.643 392.66C405.824 392.66 405.869 392.524 405.824 392.388Z" fill="white"/>
<path d="M460.677 376.575C458.547 376.393 456.915 376.439 456.461 376.393C455.555 376.348 453.515 376.076 451.293 375.94C450.659 375.895 450.16 375.895 450.16 376.257C450.115 376.529 450.296 376.665 450.795 376.665C451.429 376.71 452.427 376.801 453.061 377.073C454.059 377.571 454.376 378.432 454.285 381.06L453.424 400.317H453.243C452.563 399.592 447.168 393.022 444.448 389.941C438.6 383.28 432.571 375.895 432.072 375.306C431.392 374.445 431.075 373.901 430.576 373.856C430.168 373.811 429.987 374.4 429.941 375.261L427.901 400.634C427.629 404.395 427.357 405.619 426.224 405.89C425.589 406.026 424.819 406.026 424.275 405.981C423.867 405.936 423.595 406.026 423.595 406.253C423.549 406.661 423.912 406.706 424.501 406.751C426.723 406.887 428.717 406.932 429.125 406.932C429.941 406.978 431.619 407.25 434.429 407.431C435.019 407.431 435.427 407.386 435.427 407.068C435.427 406.797 435.2 406.706 434.701 406.661C434.021 406.615 433.205 406.525 432.525 406.208C431.664 405.845 431.211 404.712 431.347 401.359L432.027 383.28L432.163 383.326C432.888 384.187 437.285 389.85 441.637 394.789C445.808 399.502 450.931 405.483 453.424 408.246C453.877 408.745 454.376 409.243 454.829 409.243C455.237 409.289 455.419 408.926 455.464 407.975L457.731 380.924C457.912 378.523 458.32 377.662 459.544 377.39C460.043 377.3 460.405 377.3 460.813 377.345C461.357 377.39 461.584 377.254 461.629 376.982C461.629 376.665 461.221 376.575 460.677 376.575Z" fill="white"/>
<path fill-rule="evenodd" clip-rule="evenodd" d="M292.4 493.158L270.368 496.148L270.187 494.879L274.403 494.29L269.824 460.625L265.064 496.873L254.184 498.368L238.272 464.929L242.806 498.64L247.067 498.051L247.248 499.32L234.555 501.042L234.374 499.773L238.59 499.184L232.243 452.288L227.982 452.877L227.846 451.563L245.798 449.116L262.752 486.044L267.694 446.125L285.691 443.679L285.872 444.947L281.656 445.536L288.003 492.433L292.219 491.889L292.4 493.158ZM261.302 496.103L239.36 451.291L235.643 451.835L257.584 496.601L261.302 496.103ZM281.203 493.384L274.856 446.443L271.456 446.941L277.803 493.837L281.203 493.384Z" fill="#262626"/>
<path fill-rule="evenodd" clip-rule="evenodd" d="M340.318 490.575L318.104 491.889L318.014 490.621L322.275 490.349L318.331 476.076L306.046 476.846L303.507 491.482L307.768 491.255L307.859 492.524L294.984 493.294L294.894 492.025L299.155 491.753L308.267 442.456L322.003 441.64L336.011 489.533L340.272 489.261L340.318 490.575ZM318.104 474.853L310.806 448.255L306.136 475.578L318.104 474.853ZM329.166 489.941L315.566 443.317L312.12 443.543L325.72 490.168L329.166 489.941Z" fill="#262626"/>
<path fill-rule="evenodd" clip-rule="evenodd" d="M391.952 490.122L385.968 490.167C377.944 490.213 373.91 488.491 373.91 485.002L373.774 467.376C373.774 466.561 373.094 465.926 371.734 465.383C370.419 464.839 368.787 464.567 366.883 464.567L360.944 464.612L361.126 489.035H365.387V490.303L343.128 490.484V489.17H347.39L347.027 441.821H342.766V440.553L366.702 440.371C372.368 440.326 377.264 441.006 381.254 442.41C385.288 443.815 387.328 445.491 387.328 447.485L387.419 457.136C387.419 460.262 383.475 462.483 375.496 463.842C383.475 465.156 387.51 467.376 387.51 470.412L387.646 486.95C387.646 488.219 388.96 488.853 391.59 488.808H391.907L391.952 490.122ZM354.28 489.125L353.918 441.776H350.472L350.835 489.125H354.28ZM373.728 460.353L373.592 444.449C373.592 443.679 372.912 442.999 371.552 442.456C370.238 441.912 368.606 441.64 366.702 441.64L360.763 441.685L360.944 463.344L366.883 463.298C368.787 463.253 370.374 462.981 371.734 462.392C373.048 461.848 373.728 461.169 373.728 460.353ZM380.574 458.314L380.483 446.443C380.438 444.494 378.398 442.999 374.318 442.002C376.131 442.818 377.038 443.996 377.038 445.446L377.128 459.356C377.128 460.806 376.267 461.984 374.499 462.891C378.534 461.758 380.574 460.217 380.574 458.314ZM384.246 489.216C381.934 488.717 380.8 487.675 380.755 486.18L380.664 469.325C380.619 467.422 378.579 465.926 374.499 464.839C376.312 465.745 377.174 466.878 377.219 468.328L377.355 485.591C377.355 487.721 379.667 488.944 384.246 489.216Z" fill="#262626"/>
<path fill-rule="evenodd" clip-rule="evenodd" d="M418.427 491.074L396.168 490.439L396.214 489.125L400.475 489.261L401.88 441.912L397.619 441.821V440.507L419.878 441.187L419.832 442.456L415.571 442.32L414.211 489.669L418.472 489.805L418.427 491.074ZM407.32 489.442L408.726 442.138L405.28 442.048L403.92 489.352L407.32 489.442Z" fill="#262626"/>
<path fill-rule="evenodd" clip-rule="evenodd" d="M470.968 445.355L466.707 445.084L463.715 493.611L452.79 492.931L434.475 452.877L432.163 490.394L436.424 490.666L436.334 491.934L423.55 491.119L423.64 489.85L427.902 490.122L430.803 442.863L426.542 442.591L426.632 441.323L443.904 442.365L460.406 478.16L462.446 444.812L458.184 444.54L458.275 443.271L471.059 444.041L470.968 445.355ZM460.224 492.116L438.011 443.316L434.248 443.045L456.462 491.889L460.224 492.116Z" fill="#262626"/>
<path fill-rule="evenodd" clip-rule="evenodd" d="M515.35 498.55L472.691 494.29L472.827 493.022L477.088 493.43L481.803 446.307L477.542 445.899L477.678 444.585L520.291 448.889L518.795 463.797L505.15 462.392L506.51 448.799L495.448 447.666L493.272 469.188L509.456 470.82L509.32 472.088L493.182 470.502L490.734 494.789L501.795 495.922L503.155 482.283L516.8 483.688L515.35 498.55ZM483.888 494.109L488.603 446.986L485.203 446.669L480.488 493.792L483.888 494.109ZM508.64 496.601L509.864 484.277L506.464 483.914L505.24 496.239L508.64 496.601ZM512.086 461.848L513.355 449.478L509.91 449.161L508.686 461.486L512.086 461.848Z" fill="#262626"/>
<path fill-rule="evenodd" clip-rule="evenodd" d="M202.776 567.83C203.184 569.733 201.734 571.681 198.515 573.675C195.251 575.714 191.08 577.209 185.867 578.251C180.654 579.293 176.166 579.52 172.403 578.931C168.64 578.296 166.6 577.073 166.192 575.17L164.742 567.739L177.435 565.156L179.52 575.532C179.883 577.299 181.923 577.798 185.64 577.073C189.312 576.348 190.99 575.079 190.627 573.312L189.04 565.247C188.587 563.072 186.955 561.396 184.054 560.263L166.102 553.149C162.974 551.88 161.206 550.204 160.798 548.029L159.528 541.686C159.166 539.828 160.571 537.879 163.835 535.886C167.054 533.847 171.27 532.306 176.528 531.264C181.696 530.222 186.139 530.041 189.902 530.63C193.664 531.264 195.75 532.488 196.112 534.391L197.608 541.821L184.87 544.404L182.784 534.028C182.422 532.261 180.427 531.717 176.755 532.488C173.038 533.212 171.315 534.481 171.678 536.248L173.219 543.996C173.672 546.171 175.304 547.848 178.206 548.981L196.158 556.094C199.286 557.363 201.054 559.039 201.462 561.26L202.776 567.83ZM196.656 570.186L195.251 563.253C194.798 561.033 193.075 559.311 190.128 558.179L172.131 551.065C169.184 549.887 167.462 548.21 167.008 545.99L165.648 539.148C165.376 537.879 165.875 536.701 167.099 535.569C163.79 537.29 162.294 538.967 162.611 540.598L163.88 546.942C164.334 549.162 166.056 550.884 169.048 552.062L187 559.13C189.992 560.308 191.67 561.985 192.123 564.205L193.619 571.772C193.891 573.086 193.302 574.354 191.806 575.487C195.387 573.72 196.974 571.953 196.656 570.186ZM175.576 577.934C173.99 577.39 173.083 576.484 172.811 575.17L171.315 567.648L168.142 568.283L169.502 575.034C169.819 576.665 171.859 577.662 175.576 577.934ZM190.99 541.957L189.539 534.572C189.176 532.805 187 531.808 183.011 531.536C184.87 532.034 185.912 532.941 186.184 534.3L187.816 542.592L190.99 541.957Z" fill="#262626"/>
<path fill-rule="evenodd" clip-rule="evenodd" d="M250.331 522.383L246.342 522.836L250.921 562.075C251.147 563.933 249.47 565.745 245.843 567.557C242.217 569.325 237.729 570.548 232.379 571.182C227.075 571.817 222.497 571.681 218.553 570.775C214.609 569.868 212.523 568.509 212.297 566.606L207.718 527.413L203.638 527.911L203.457 526.688L224.491 524.195L224.627 525.419L220.593 525.872L225.579 568.056C225.67 568.781 226.35 569.325 227.665 569.732C228.979 570.095 230.521 570.185 232.243 569.959C234.011 569.778 235.507 569.325 236.731 568.645C237.91 567.965 238.454 567.286 238.363 566.515L233.422 524.377L229.433 524.83L229.297 523.652L250.195 521.16L250.331 522.383ZM221.363 570.14C219.867 569.461 219.051 568.464 218.915 567.15L214.155 526.642L210.937 527.005L215.606 566.742C215.787 568.373 217.691 569.506 221.363 570.14ZM244.619 563.887L239.859 523.606L236.641 523.969L241.491 565.247C241.673 566.561 240.947 567.784 239.361 568.781C243.078 567.331 244.846 565.7 244.619 563.887Z" fill="#262626"/>
<path fill-rule="evenodd" clip-rule="evenodd" d="M305.365 564.522L299.744 564.929C292.173 565.473 288.275 564.114 288.048 560.806L286.824 544.132C286.779 543.407 286.099 542.818 284.784 542.365C283.515 541.912 281.973 541.776 280.16 541.912L274.539 542.32L276.216 565.383L280.251 565.111L280.341 566.334L259.307 567.829L259.216 566.606L263.251 566.334L260.032 521.613L255.997 521.93L255.952 520.707L278.528 519.075C283.877 518.668 288.547 519.03 292.4 520.118C296.299 521.16 298.339 522.655 298.475 524.513L299.11 533.62C299.336 536.565 295.709 538.921 288.275 540.688C295.891 541.459 299.789 543.316 300.016 546.171L301.104 561.758C301.195 562.981 302.464 563.48 304.957 563.298H305.275L305.365 564.522ZM269.733 565.836L266.515 521.16L263.296 521.386L266.469 566.108L269.733 565.836ZM286.371 537.517L285.283 522.519C285.237 521.749 284.557 521.16 283.243 520.752C281.928 520.299 280.387 520.163 278.619 520.299L272.997 520.707L274.448 541.096L280.069 540.688C281.883 540.552 283.379 540.19 284.603 539.556C285.827 538.967 286.416 538.287 286.371 537.517ZM292.717 535.206L291.901 523.969C291.765 522.111 289.725 520.842 285.827 520.118C287.549 520.797 288.501 521.839 288.592 523.244L289.544 536.339C289.635 537.743 288.864 538.876 287.232 539.828C290.995 538.559 292.853 536.973 292.717 535.206ZM298.021 564.159C295.845 563.797 294.712 562.936 294.576 561.486L293.443 545.537C293.307 543.77 291.312 542.456 287.368 541.731C289.136 542.456 290.043 543.452 290.133 544.812L291.312 561.123C291.448 563.162 293.715 564.159 298.021 564.159Z" fill="#262626"/>
<path fill-rule="evenodd" clip-rule="evenodd" d="M348.75 516.901L344.715 517.037L334.969 563.434L322.094 563.933L309.808 518.305L305.774 518.441L305.729 517.218L326.763 516.448L326.808 517.671L322.774 517.807L332.702 557.906L340.681 517.172L336.555 517.308L336.51 516.085L348.704 515.677L348.75 516.901ZM328.44 562.483L316.291 518.079L313.072 518.169L325.267 562.573L328.44 562.483Z" fill="#262626"/>
<path fill-rule="evenodd" clip-rule="evenodd" d="M393.856 562.709L353.283 562.845V561.622H357.318L357.182 516.81H353.147L353.102 515.587L393.675 515.451L393.72 529.633L380.755 529.678L380.71 516.719L370.147 516.765L370.238 537.2L385.606 537.154V538.378L370.238 538.423L370.328 561.577L380.846 561.531L380.8 548.573L393.811 548.527L393.856 562.709ZM363.8 561.577L363.664 516.765H360.4L360.582 561.577H363.8ZM387.238 528.455L387.192 516.674H383.928L383.974 528.455H387.238ZM387.328 561.486L387.283 549.751L384.064 549.796L384.11 561.531L387.328 561.486Z" fill="#262626"/>
<path fill-rule="evenodd" clip-rule="evenodd" d="M444.267 518.033L440.232 517.943L427.267 544.449L426.723 562.347L430.803 562.483L430.758 563.706L409.678 563.072L409.723 561.848L413.758 561.939L414.302 544.087L403.739 516.81L399.659 516.674L399.704 515.451L420.467 516.085L420.422 517.308L416.387 517.218L425.272 540.96L436.334 517.807L432.299 517.671L432.345 516.448L444.313 516.81L444.267 518.033ZM420.24 562.166L420.83 543.724L410.222 516.991L406.958 516.901L417.566 543.634L417.022 562.075L420.24 562.166Z" fill="#262626"/>
<path fill-rule="evenodd" clip-rule="evenodd" d="M487.47 560.444C487.334 562.347 485.339 563.797 481.44 564.93C477.587 566.017 472.918 566.379 467.568 566.017C462.219 565.654 457.731 564.658 453.968 563.072C450.251 561.441 448.438 559.719 448.574 557.816L450.886 523.742C450.976 521.885 453.016 520.389 456.915 519.302C460.814 518.215 465.438 517.852 470.787 518.215C476.136 518.577 480.67 519.529 484.387 521.16C488.104 522.746 489.872 524.513 489.736 526.37L487.47 560.444ZM456.87 562.936C455.51 561.984 454.875 560.852 454.966 559.538L457.414 522.927C457.504 521.613 458.32 520.571 459.771 519.846C456.144 520.616 454.24 521.839 454.15 523.516L451.792 558.541C451.656 560.217 453.379 561.667 456.87 562.936ZM474.323 562.528L476.998 522.564C477.043 521.794 476.454 521.114 475.23 520.525C474.006 519.891 472.464 519.529 470.696 519.393C468.883 519.302 467.342 519.438 466.027 519.891C464.758 520.344 464.078 520.933 464.032 521.658L461.358 561.667C461.312 562.392 461.902 563.072 463.126 563.706C464.35 564.295 465.846 564.658 467.659 564.794C469.427 564.93 470.968 564.748 472.283 564.295C473.598 563.887 474.232 563.253 474.323 562.528ZM480.896 561.078L483.344 524.875C483.48 523.063 481.622 521.522 477.768 520.208C479.446 521.16 480.262 522.338 480.171 523.697L477.587 561.848C477.496 563.208 476.59 564.205 474.776 564.93C478.766 564.159 480.806 562.891 480.896 561.078Z" fill="#262626"/>
<path fill-rule="evenodd" clip-rule="evenodd" d="M539.694 572.542L534.118 571.907C526.547 571.092 522.966 569.053 523.328 565.79L525.142 549.162C525.232 548.437 524.643 547.712 523.464 547.032C522.24 546.398 520.744 545.944 518.976 545.763L513.4 545.129L510.862 568.147L514.896 568.6L514.76 569.823L493.816 567.512L493.952 566.289L497.942 566.742L502.838 522.157L498.803 521.749L498.939 520.525L521.47 523.017C526.819 523.561 531.307 524.739 534.934 526.506C538.56 528.273 540.283 530.086 540.102 531.989L539.104 541.051C538.787 543.951 534.798 545.627 527.136 546.035C534.526 548.165 538.062 550.657 537.744 553.511L536.022 569.098C535.886 570.276 537.064 571.046 539.512 571.318H539.83L539.694 572.542ZM504.424 567.422L509.275 522.882L506.056 522.519L501.206 567.104L504.424 567.422ZM525.867 542.592L527.499 527.594C527.59 526.869 527 526.144 525.822 525.51C524.598 524.83 523.102 524.422 521.334 524.196L515.758 523.606L513.536 543.951L519.112 544.54C520.88 544.766 522.467 544.631 523.782 544.268C525.096 543.86 525.776 543.317 525.867 542.592ZM532.576 570.865C530.491 570.14 529.494 569.053 529.675 567.648L531.398 551.744C531.579 549.932 529.811 548.346 526.094 546.896C527.68 547.893 528.406 549.071 528.27 550.43L526.502 566.697C526.275 568.69 528.315 570.095 532.576 570.865ZM532.531 541.413L533.755 530.222C533.936 528.409 532.168 526.778 528.451 525.374C530.038 526.37 530.763 527.549 530.627 528.908L529.176 542.003C529.04 543.362 528.088 544.359 526.32 544.993C530.264 544.404 532.304 543.226 532.531 541.413Z" fill="#262626"/>
<path fill-rule="evenodd" clip-rule="evenodd" d="M582.851 572.632C582.579 574.535 580.585 575.849 576.822 576.62C573.105 577.39 568.617 577.39 563.403 576.574C558.145 575.759 553.838 574.399 550.529 572.496C547.219 570.639 545.723 568.736 545.995 566.878L547.174 559.356L560.003 561.35L558.371 571.817C558.099 573.584 559.867 574.762 563.63 575.351C567.302 575.94 569.297 575.351 569.569 573.584L570.838 565.473C571.201 563.253 570.203 561.078 567.937 559.039L553.521 546.126C551.027 543.86 549.939 541.685 550.302 539.465L551.299 533.122C551.571 531.219 553.611 529.905 557.329 529.134C561.046 528.364 565.534 528.41 570.838 529.225C576.051 530.041 580.313 531.4 583.622 533.258C586.931 535.161 588.427 537.018 588.155 538.922L586.977 546.443L574.147 544.404L575.779 533.983C576.051 532.17 574.329 530.992 570.611 530.448C566.894 529.859 564.854 530.448 564.582 532.216L563.358 540.009C562.995 542.229 563.993 544.359 566.305 546.443L580.721 559.311C583.169 561.577 584.257 563.797 583.894 566.017L582.851 572.632ZM553.838 572.678C552.569 571.636 552.025 570.457 552.251 569.143L553.43 561.531L550.211 561.033L549.169 567.829C548.897 569.506 550.438 571.092 553.838 572.678ZM576.278 572.723L577.366 565.7C577.729 563.48 576.731 561.305 574.329 559.175L559.913 546.307C557.51 544.177 556.467 541.957 556.83 539.737L557.918 532.85C558.099 531.581 558.961 530.63 560.502 529.995C556.83 530.448 554.835 531.491 554.563 533.167L553.566 539.556C553.203 541.776 554.246 543.996 556.649 546.126L571.065 558.994C573.467 561.124 574.465 563.298 574.102 565.519L572.923 573.176C572.742 574.49 571.699 575.442 569.931 576.031C573.875 575.578 576.006 574.49 576.278 572.723ZM580.721 544.268L581.899 536.837C582.171 535.07 580.494 533.348 576.822 531.717C578.363 532.805 579.043 534.073 578.817 535.433L577.547 543.77L580.721 544.268Z" fill="#262626"/>
</svg>
