<svg width="550" height="278" viewBox="0 0 550 278" fill="none" xmlns="http://www.w3.org/2000/svg">
<rect y="127" width="549" height="50" fill="#1F3FB3"/>
<path d="M59.8755 75.2661C61.7065 77.3006 63.0493 79.5386 63.9038 81.98C64.799 84.3807 65.2466 87.1883 65.2466 90.4028C65.2466 98.0526 62.4186 104.36 56.7627 109.324C51.1068 114.288 44.0877 116.77 35.7056 116.77C31.84 116.77 27.9744 116.18 24.1089 115C20.2433 113.779 16.9067 112.314 14.0991 110.605L11.4746 115.061H6.5918L5.7373 85.3979H10.6812C11.6984 89.0601 12.8784 92.3763 14.2212 95.3467C15.6047 98.2764 17.4154 101.023 19.6533 103.586C21.7692 105.987 24.231 107.9 27.0386 109.324C29.8869 110.748 33.1828 111.46 36.9263 111.46C39.7339 111.46 42.1753 111.094 44.2505 110.361C46.3664 109.629 48.0754 108.591 49.3774 107.249C50.6795 105.906 51.6357 104.339 52.2461 102.549C52.8971 100.718 53.2227 98.6222 53.2227 96.2622C53.2227 92.8035 52.2461 89.589 50.293 86.6187C48.3398 83.6076 45.4305 81.3289 41.5649 79.7827C38.9201 78.7248 35.8887 77.5651 32.4707 76.3037C29.0527 75.0016 26.1027 73.7809 23.6206 72.6416C18.7378 70.4443 14.9333 67.5757 12.207 64.0356C9.52148 60.4549 8.17871 55.7959 8.17871 50.0586C8.17871 46.7627 8.8501 43.6906 10.1929 40.8423C11.5356 37.994 13.4481 35.4508 15.9302 33.2129C18.2902 31.097 21.0775 29.4491 24.292 28.269C27.5065 27.0483 30.8634 26.438 34.3628 26.438C38.3504 26.438 41.9108 27.0483 45.0439 28.269C48.2178 29.4897 51.1068 30.9139 53.7109 32.5415L56.2134 28.3911H61.0962L61.5845 57.1387H56.6406C55.7454 53.8428 54.7282 50.6893 53.5889 47.6782C52.4902 44.6672 51.0457 41.9409 49.2554 39.4995C47.5057 37.1395 45.3695 35.2677 42.8467 33.8843C40.3239 32.4601 37.2314 31.748 33.5693 31.748C29.7038 31.748 26.4079 32.9891 23.6816 35.4712C20.9554 37.9533 19.5923 40.9847 19.5923 44.5654C19.5923 48.3089 20.4671 51.4217 22.2168 53.9038C23.9665 56.3452 26.5096 58.3594 29.8462 59.9463C32.8166 61.3704 35.7259 62.6115 38.5742 63.6694C41.4632 64.6867 44.2505 65.7853 46.936 66.9653C49.3774 68.0233 51.7171 69.2236 53.9551 70.5664C56.2337 71.9092 58.2072 73.4757 59.8755 75.2661ZM163.757 32.7246C162.618 32.7653 160.95 33.0094 158.752 33.457C156.555 33.9046 154.765 34.576 153.381 35.4712C151.998 36.4071 151.042 38.3398 150.513 41.2695C149.984 44.1992 149.719 47.7799 149.719 52.0117V89.6704C149.719 94.4718 148.722 98.6426 146.729 102.183C144.735 105.723 142.11 108.632 138.855 110.911C135.64 113.108 132.243 114.674 128.662 115.61C125.122 116.587 121.724 117.075 118.469 117.075C113.261 117.075 108.622 116.383 104.553 115C100.484 113.657 97.0662 111.826 94.2993 109.507C91.5731 107.188 89.5182 104.543 88.1348 101.572C86.7513 98.5612 86.0596 95.4281 86.0596 92.1729V40.9644C86.0596 39.5402 85.8154 38.3602 85.3271 37.4243C84.8796 36.4478 83.9437 35.5526 82.5195 34.7388C81.5023 34.1691 80.2002 33.7215 78.6133 33.396C77.0264 33.0298 75.7243 32.806 74.707 32.7246V28.3911H110.779V32.7246C109.639 32.7653 108.195 32.9484 106.445 33.2739C104.736 33.5994 103.475 33.9046 102.661 34.1895C101.278 34.6777 100.342 35.4915 99.8535 36.6309C99.4059 37.7702 99.1821 39.0112 99.1821 40.354V88.2056C99.1821 90.5249 99.4263 92.9663 99.9146 95.5298C100.444 98.0526 101.461 100.413 102.966 102.61C104.553 104.848 106.71 106.679 109.436 108.103C112.162 109.527 115.906 110.239 120.667 110.239C125.142 110.239 128.886 109.527 131.897 108.103C134.949 106.679 137.349 104.807 139.099 102.488C140.767 100.291 141.947 97.9915 142.639 95.5908C143.331 93.1901 143.677 90.769 143.677 88.3276V52.8052C143.677 48.2886 143.351 44.6061 142.7 41.7578C142.049 38.8688 141.093 36.9767 139.832 36.0815C138.407 35.0643 136.454 34.2708 133.972 33.7012C131.531 33.1315 129.659 32.806 128.357 32.7246V28.3911H163.757V32.7246ZM259.644 32.7246C258.504 32.7653 256.755 33.0908 254.395 33.7012C252.035 34.3115 250.346 34.9422 249.329 35.5933C247.864 36.6105 246.867 38.5636 246.338 41.4526C245.85 44.3416 245.605 48.0037 245.605 52.439V115.854H240.295L187.805 44.9927V89.6704C187.805 94.6753 188.11 98.5205 188.721 101.206C189.372 103.892 190.348 105.804 191.65 106.943C192.586 107.839 194.519 108.673 197.449 109.446C200.378 110.219 202.311 110.626 203.247 110.667V115H167.725V110.667C168.823 110.585 170.675 110.199 173.279 109.507C175.883 108.774 177.511 108.123 178.162 107.554C179.586 106.414 180.562 104.685 181.091 102.366C181.62 100.006 181.885 95.9977 181.885 90.3418V47.6782C181.885 45.8065 181.559 43.9347 180.908 42.063C180.257 40.1912 179.382 38.7467 178.284 37.7295C176.819 36.3867 174.825 35.2474 172.302 34.3115C169.82 33.335 167.806 32.806 166.26 32.7246V28.3911H190.979L239.685 94.4312V53.2324C239.685 48.1868 239.36 44.3213 238.708 41.6357C238.057 38.9095 237.122 37.0988 235.901 36.2036C234.762 35.4305 232.89 34.6777 230.286 33.9453C227.722 33.2129 225.769 32.806 224.426 32.7246V28.3911H259.644V32.7246ZM351.074 115H327.759C322.591 106.903 317.912 99.904 313.721 94.0039C309.57 88.1038 305.054 82.0207 300.171 75.7544H291.321V103.22C291.321 104.644 291.545 105.906 291.992 107.004C292.44 108.062 293.396 108.876 294.861 109.446C295.593 109.731 296.875 109.995 298.706 110.239C300.537 110.483 302.083 110.626 303.345 110.667V115H266.724V110.667C267.7 110.585 269.104 110.443 270.935 110.239C272.807 110.036 274.109 109.771 274.841 109.446C276.062 108.917 276.937 108.144 277.466 107.126C278.035 106.109 278.32 104.807 278.32 103.22V40.5981C278.32 39.174 278.117 37.9126 277.71 36.814C277.303 35.7153 276.347 34.8812 274.841 34.3115C273.824 33.9453 272.502 33.6198 270.874 33.335C269.246 33.0094 267.863 32.806 266.724 32.7246V28.3911H306.702C310.364 28.3911 313.802 28.7777 317.017 29.5508C320.231 30.2832 323.14 31.4836 325.745 33.1519C328.267 34.7795 330.282 36.9157 331.787 39.5605C333.293 42.1647 334.045 45.3182 334.045 49.021C334.045 52.3576 333.537 55.3076 332.52 57.8711C331.502 60.4346 329.997 62.6522 328.003 64.5239C326.172 66.2736 323.975 67.7995 321.411 69.1016C318.848 70.363 316.02 71.4412 312.927 72.3364C317.2 77.9924 320.74 82.7531 323.547 86.6187C326.396 90.4842 329.875 95.1839 333.984 100.718C335.775 103.159 337.382 104.97 338.806 106.15C340.271 107.289 341.715 108.225 343.14 108.958C344.198 109.486 345.52 109.893 347.107 110.178C348.694 110.463 350.016 110.626 351.074 110.667V115ZM318.97 50.4248C318.97 45.1758 317.464 41.0254 314.453 37.9736C311.442 34.8812 307.19 33.335 301.697 33.335H291.321V70.5054H299.316C304.932 70.5054 309.611 68.715 313.354 65.1343C317.098 61.5129 318.97 56.6097 318.97 50.4248ZM392.334 115H353.333V110.667C354.431 110.585 356.018 110.463 358.093 110.3C360.168 110.138 361.633 109.893 362.488 109.568C363.831 109.039 364.807 108.327 365.417 107.432C366.028 106.496 366.333 105.214 366.333 103.586V40.8423C366.333 39.4181 366.109 38.2381 365.662 37.3022C365.214 36.3257 364.156 35.5119 362.488 34.8608C361.267 34.3726 359.721 33.925 357.849 33.5181C356.018 33.0705 354.513 32.806 353.333 32.7246V28.3911H392.334V32.7246C391.073 32.7653 389.567 32.9281 387.817 33.2129C386.068 33.457 384.542 33.7826 383.24 34.1895C381.694 34.6777 380.656 35.4712 380.127 36.5698C379.598 37.6685 379.333 38.8892 379.333 40.2319V102.915C379.333 104.258 379.618 105.458 380.188 106.516C380.798 107.533 381.816 108.347 383.24 108.958C384.094 109.283 385.478 109.649 387.39 110.056C389.343 110.422 390.991 110.626 392.334 110.667V115ZM457.092 75.2661C458.923 77.3006 460.266 79.5386 461.121 81.98C462.016 84.3807 462.463 87.1883 462.463 90.4028C462.463 98.0526 459.635 104.36 453.979 109.324C448.324 114.288 441.305 116.77 432.922 116.77C429.057 116.77 425.191 116.18 421.326 115C417.46 113.779 414.124 112.314 411.316 110.605L408.691 115.061H403.809L402.954 85.3979H407.898C408.915 89.0601 410.095 92.3763 411.438 95.3467C412.821 98.2764 414.632 101.023 416.87 103.586C418.986 105.987 421.448 107.9 424.255 109.324C427.104 110.748 430.4 111.46 434.143 111.46C436.951 111.46 439.392 111.094 441.467 110.361C443.583 109.629 445.292 108.591 446.594 107.249C447.896 105.906 448.853 104.339 449.463 102.549C450.114 100.718 450.439 98.6222 450.439 96.2622C450.439 92.8035 449.463 89.589 447.51 86.6187C445.557 83.6076 442.647 81.3289 438.782 79.7827C436.137 78.7248 433.105 77.5651 429.688 76.3037C426.27 75.0016 423.319 73.7809 420.837 72.6416C415.955 70.4443 412.15 67.5757 409.424 64.0356C406.738 60.4549 405.396 55.7959 405.396 50.0586C405.396 46.7627 406.067 43.6906 407.41 40.8423C408.752 37.994 410.665 35.4508 413.147 33.2129C415.507 31.097 418.294 29.4491 421.509 28.269C424.723 27.0483 428.08 26.438 431.58 26.438C435.567 26.438 439.128 27.0483 442.261 28.269C445.435 29.4897 448.324 30.9139 450.928 32.5415L453.43 28.3911H458.313L458.801 57.1387H453.857C452.962 53.8428 451.945 50.6893 450.806 47.6782C449.707 44.6672 448.263 41.9409 446.472 39.4995C444.722 37.1395 442.586 35.2677 440.063 33.8843C437.541 32.4601 434.448 31.748 430.786 31.748C426.921 31.748 423.625 32.9891 420.898 35.4712C418.172 37.9533 416.809 40.9847 416.809 44.5654C416.809 48.3089 417.684 51.4217 419.434 53.9038C421.183 56.3452 423.726 58.3594 427.063 59.9463C430.033 61.3704 432.943 62.6115 435.791 63.6694C438.68 64.6867 441.467 65.7853 444.153 66.9653C446.594 68.0233 448.934 69.2236 451.172 70.5664C453.451 71.9092 455.424 73.4757 457.092 75.2661ZM546.204 89.4873L544.556 115H472.656V110.667C473.877 110.585 475.505 110.422 477.539 110.178C479.574 109.893 480.896 109.609 481.506 109.324C482.808 108.713 483.704 107.92 484.192 106.943C484.721 105.967 484.985 104.726 484.985 103.22V40.9644C484.985 39.6216 484.762 38.4416 484.314 37.4243C483.866 36.3664 482.931 35.5119 481.506 34.8608C480.408 34.3319 478.923 33.8639 477.051 33.457C475.22 33.0501 473.755 32.806 472.656 32.7246V28.3911H539.673V49.2651H535.095C534.281 46.1727 532.511 42.8971 529.785 39.4385C527.1 35.9391 524.536 34.0267 522.095 33.7012C520.833 33.5384 519.328 33.4163 517.578 33.335C515.828 33.2536 513.835 33.2129 511.597 33.2129H497.986V67.6367H507.751C510.885 67.6367 513.163 67.3519 514.587 66.7822C516.052 66.1719 517.334 65.175 518.433 63.7915C519.328 62.6115 520.081 61.0449 520.691 59.0918C521.342 57.098 521.769 55.2262 521.973 53.4766H526.55V87.3511H521.973C521.81 85.3979 521.362 83.3431 520.63 81.1865C519.938 78.9893 519.206 77.4023 518.433 76.4258C517.171 74.8389 515.727 73.8013 514.099 73.313C512.512 72.8247 510.396 72.5806 507.751 72.5806H497.986V98.5815C497.986 101.186 498.169 103.241 498.535 104.746C498.901 106.252 499.613 107.391 500.671 108.164C501.729 108.937 503.174 109.446 505.005 109.69C506.836 109.893 509.44 109.995 512.817 109.995C514.16 109.995 515.93 109.995 518.127 109.995C520.325 109.995 522.176 109.914 523.682 109.751C525.228 109.588 526.815 109.303 528.442 108.896C530.111 108.449 531.291 107.859 531.982 107.126C533.854 105.173 535.807 102.223 537.842 98.2764C539.917 94.2887 541.239 91.359 541.809 89.4873H546.204Z" fill="#2653F7"/>
<path d="M49.0547 228.629C50.8913 229.874 52.4168 231.503 53.6313 233.517C54.8459 235.531 55.4531 237.975 55.4531 240.849C55.4531 243.781 54.8162 246.329 53.5425 248.491C52.2687 250.654 50.6099 252.431 48.5659 253.823C46.5812 255.186 44.3299 256.223 41.812 256.934C39.3237 257.645 36.7466 258 34.0806 258H4.22119V254.845C4.93213 254.786 5.96891 254.667 7.33154 254.49C8.69417 254.282 9.67171 254.045 10.2642 253.779C11.1825 253.364 11.8341 252.816 12.2192 252.135C12.6043 251.424 12.7969 250.52 12.7969 249.424V204.102C12.7969 203.095 12.6191 202.206 12.2637 201.436C11.9378 200.666 11.2713 200.044 10.2642 199.57C9.37549 199.125 8.38314 198.785 7.28711 198.548C6.19108 198.311 5.27279 198.163 4.53223 198.104V194.949H33.6362C35.8875 194.949 38.0352 195.171 40.0791 195.615C42.1527 196.06 44.1226 196.845 45.9888 197.97C47.7365 199.007 49.1732 200.414 50.2988 202.191C51.4245 203.969 51.9873 206.131 51.9873 208.679C51.9873 210.9 51.5874 212.885 50.7876 214.633C49.9878 216.351 48.8621 217.832 47.4106 219.076C46.048 220.261 44.478 221.268 42.7007 222.098C40.953 222.897 39.0571 223.52 37.0132 223.964V224.364C38.8201 224.571 40.8345 225.03 43.0562 225.741C45.3075 226.423 47.307 227.385 49.0547 228.629ZM38.3462 219.121C39.4422 217.847 40.1976 216.455 40.6123 214.944C41.0566 213.433 41.2788 211.641 41.2788 209.567C41.2788 206.102 40.3309 203.391 38.4351 201.436C36.5392 199.451 33.5474 198.459 29.4595 198.459C28.5116 198.459 27.3118 198.489 25.8604 198.548C24.4385 198.577 23.2388 198.607 22.2612 198.637V222.853H27.9043C30.3333 222.853 32.4069 222.542 34.125 221.92C35.8727 221.298 37.2798 220.365 38.3462 219.121ZM44.478 239.249C44.478 235.517 43.2191 232.451 40.7012 230.051C38.2129 227.652 34.6434 226.452 29.9927 226.452C28.0968 226.452 26.4972 226.482 25.1938 226.541C23.8905 226.571 22.9129 226.6 22.2612 226.63V248.847C22.2612 250.713 23.0166 252.12 24.5273 253.068C26.0381 254.016 28.1413 254.49 30.8369 254.49C35.2507 254.49 38.6276 253.201 40.9678 250.624C43.3079 248.047 44.478 244.255 44.478 239.249ZM122.681 258H96.4209V254.845C98.7314 254.697 100.642 254.401 102.153 253.957C103.693 253.512 104.463 252.964 104.463 252.312C104.463 252.046 104.434 251.72 104.375 251.335C104.315 250.95 104.226 250.609 104.108 250.313L98.8647 236.183H76.7812C75.9518 238.257 75.2705 240.064 74.7373 241.604C74.2337 243.144 73.7746 244.566 73.3599 245.87C72.9748 247.143 72.7082 248.18 72.5601 248.98C72.4119 249.78 72.3379 250.431 72.3379 250.935C72.3379 252.12 73.271 253.038 75.1372 253.69C77.0034 254.342 79.1066 254.727 81.4468 254.845V258H57.7192V254.845C58.4894 254.786 59.4521 254.623 60.6074 254.356C61.7627 254.06 62.7106 253.675 63.4512 253.201C64.6361 252.401 65.5544 251.572 66.2061 250.713C66.8577 249.824 67.4946 248.61 68.1167 247.069C71.2863 239.16 74.7817 230.273 78.603 220.409C82.4243 210.545 85.8309 201.762 88.8228 194.06H92.3774L113.395 248.447C113.839 249.602 114.342 250.535 114.905 251.246C115.468 251.957 116.253 252.653 117.26 253.334C117.942 253.749 118.83 254.105 119.926 254.401C121.022 254.667 121.941 254.816 122.681 254.845V258ZM97.2651 232.229L87.7119 207.79L78.3364 232.229H97.2651ZM152.496 258H124.103V254.845C124.903 254.786 126.058 254.697 127.569 254.579C129.08 254.46 130.146 254.282 130.768 254.045C131.746 253.66 132.457 253.142 132.901 252.49C133.345 251.809 133.567 250.876 133.567 249.691V204.013C133.567 202.976 133.404 202.117 133.079 201.436C132.753 200.725 131.983 200.133 130.768 199.659C129.879 199.303 128.754 198.977 127.391 198.681C126.058 198.355 124.962 198.163 124.103 198.104V194.949H152.496V198.104C151.578 198.133 150.482 198.252 149.208 198.459C147.934 198.637 146.823 198.874 145.875 199.17C144.75 199.525 143.994 200.103 143.609 200.903C143.224 201.703 143.032 202.591 143.032 203.569V249.202C143.032 250.18 143.239 251.054 143.654 251.824C144.098 252.564 144.839 253.157 145.875 253.601C146.498 253.838 147.505 254.105 148.897 254.401C150.319 254.667 151.519 254.816 152.496 254.845V258ZM211.015 239.249L209.682 258H160.405V254.845C161.116 254.786 162.138 254.682 163.471 254.534C164.834 254.386 165.782 254.194 166.315 253.957C167.204 253.571 167.84 253.009 168.226 252.268C168.64 251.528 168.848 250.58 168.848 249.424V204.28C168.848 203.273 168.67 202.384 168.314 201.614C167.989 200.844 167.322 200.222 166.315 199.748C165.634 199.392 164.671 199.051 163.427 198.726C162.212 198.37 161.205 198.163 160.405 198.104V194.949H187.021V198.104C186.192 198.133 185.11 198.281 183.777 198.548C182.474 198.814 181.526 199.051 180.934 199.259C179.926 199.614 179.23 200.222 178.845 201.081C178.49 201.94 178.312 202.858 178.312 203.835V246.181C178.312 248.136 178.401 249.661 178.579 250.757C178.786 251.824 179.245 252.653 179.956 253.246C180.637 253.779 181.645 254.134 182.978 254.312C184.34 254.46 186.236 254.534 188.665 254.534C189.761 254.534 190.902 254.505 192.086 254.445C193.271 254.386 194.397 254.268 195.463 254.09C196.5 253.912 197.448 253.675 198.307 253.379C199.196 253.053 199.847 252.653 200.262 252.179C201.477 250.817 202.884 248.758 204.483 246.003C206.113 243.218 207.238 240.967 207.86 239.249H211.015ZM281.976 228.629C283.812 229.874 285.338 231.503 286.552 233.517C287.767 235.531 288.374 237.975 288.374 240.849C288.374 243.781 287.737 246.329 286.463 248.491C285.19 250.654 283.531 252.431 281.487 253.823C279.502 255.186 277.251 256.223 274.733 256.934C272.245 257.645 269.667 258 267.001 258H237.142V254.845C237.853 254.786 238.89 254.667 240.252 254.49C241.615 254.282 242.593 254.045 243.185 253.779C244.103 253.364 244.755 252.816 245.14 252.135C245.525 251.424 245.718 250.52 245.718 249.424V204.102C245.718 203.095 245.54 202.206 245.185 201.436C244.859 200.666 244.192 200.044 243.185 199.57C242.296 199.125 241.304 198.785 240.208 198.548C239.112 198.311 238.194 198.163 237.453 198.104V194.949H266.557C268.808 194.949 270.956 195.171 273 195.615C275.074 196.06 277.043 196.845 278.91 197.97C280.657 199.007 282.094 200.414 283.22 202.191C284.345 203.969 284.908 206.131 284.908 208.679C284.908 210.9 284.508 212.885 283.708 214.633C282.909 216.351 281.783 217.832 280.332 219.076C278.969 220.261 277.399 221.268 275.622 222.098C273.874 222.897 271.978 223.52 269.934 223.964V224.364C271.741 224.571 273.755 225.03 275.977 225.741C278.228 226.423 280.228 227.385 281.976 228.629ZM271.267 219.121C272.363 217.847 273.118 216.455 273.533 214.944C273.978 213.433 274.2 211.641 274.2 209.567C274.2 206.102 273.252 203.391 271.356 201.436C269.46 199.451 266.468 198.459 262.38 198.459C261.432 198.459 260.233 198.489 258.781 198.548C257.359 198.577 256.16 198.607 255.182 198.637V222.853H260.825C263.254 222.853 265.328 222.542 267.046 221.92C268.794 221.298 270.201 220.365 271.267 219.121ZM277.399 239.249C277.399 235.517 276.14 232.451 273.622 230.051C271.134 227.652 267.564 226.452 262.914 226.452C261.018 226.452 259.418 226.482 258.115 226.541C256.811 226.571 255.834 226.6 255.182 226.63V248.847C255.182 250.713 255.938 252.12 257.448 253.068C258.959 254.016 261.062 254.49 263.758 254.49C268.172 254.49 271.549 253.201 273.889 250.624C276.229 248.047 277.399 244.255 277.399 239.249ZM347.737 202.414C350.522 205.317 352.699 208.827 354.269 212.944C355.839 217.032 356.624 221.564 356.624 226.541C356.624 231.547 355.824 236.094 354.225 240.182C352.625 244.27 350.403 247.751 347.56 250.624C344.805 253.468 341.605 255.66 337.962 257.2C334.318 258.741 330.438 259.511 326.32 259.511C321.936 259.511 317.878 258.696 314.146 257.067C310.443 255.408 307.258 253.112 304.592 250.18C301.926 247.306 299.823 243.826 298.283 239.738C296.772 235.62 296.017 231.221 296.017 226.541C296.017 221.416 296.816 216.854 298.416 212.855C300.016 208.827 302.222 205.346 305.037 202.414C307.821 199.511 311.05 197.289 314.723 195.749C318.426 194.208 322.292 193.438 326.32 193.438C330.497 193.438 334.437 194.223 338.14 195.793C341.842 197.363 345.042 199.57 347.737 202.414ZM341.117 247.114C342.776 244.418 343.975 241.367 344.716 237.96C345.486 234.554 345.871 230.747 345.871 226.541C345.871 222.216 345.442 218.247 344.583 214.633C343.753 211.019 342.524 207.938 340.895 205.391C339.265 202.873 337.221 200.918 334.763 199.525C332.304 198.104 329.49 197.393 326.32 197.393C322.766 197.393 319.744 198.207 317.256 199.836C314.768 201.466 312.738 203.643 311.168 206.368C309.687 208.975 308.576 212.026 307.836 215.521C307.125 219.017 306.77 222.69 306.77 226.541C306.77 230.807 307.155 234.658 307.925 238.094C308.695 241.53 309.91 244.581 311.568 247.247C313.168 249.854 315.182 251.898 317.611 253.379C320.04 254.83 322.943 255.556 326.32 255.556C329.49 255.556 332.348 254.816 334.896 253.334C337.444 251.853 339.517 249.78 341.117 247.114ZM429.229 198.104C428.399 198.133 427.125 198.37 425.407 198.814C423.689 199.259 422.46 199.718 421.719 200.192C420.653 200.932 419.927 202.354 419.542 204.458C419.187 206.561 419.009 209.227 419.009 212.456V258.622H415.143L376.93 207.035V239.56C376.93 243.204 377.152 246.003 377.597 247.958C378.071 249.913 378.782 251.305 379.729 252.135C380.411 252.786 381.818 253.394 383.951 253.957C386.083 254.519 387.491 254.816 388.172 254.845V258H362.312V254.845C363.111 254.786 364.459 254.505 366.355 254.001C368.251 253.468 369.436 252.994 369.91 252.579C370.946 251.75 371.657 250.491 372.042 248.802C372.428 247.084 372.62 244.166 372.62 240.049V208.99C372.62 207.627 372.383 206.264 371.909 204.902C371.435 203.539 370.798 202.488 369.999 201.747C368.932 200.77 367.481 199.94 365.644 199.259C363.837 198.548 362.371 198.163 361.245 198.104V194.949H379.241L414.699 243.026V213.033C414.699 209.36 414.462 206.546 413.988 204.591C413.514 202.606 412.833 201.288 411.944 200.636C411.114 200.073 409.752 199.525 407.856 198.992C405.99 198.459 404.568 198.163 403.59 198.104V194.949H429.229V198.104ZM494.768 226.852C494.768 232.214 493.761 236.864 491.747 240.804C489.732 244.744 487.111 247.973 483.882 250.491C480.623 253.009 476.965 254.89 472.907 256.134C468.848 257.378 464.657 258 460.332 258H434.205V254.845C435.064 254.845 436.175 254.771 437.538 254.623C438.93 254.445 439.848 254.253 440.292 254.045C441.181 253.66 441.818 253.097 442.203 252.357C442.618 251.587 442.825 250.668 442.825 249.602V204.102C442.825 203.095 442.647 202.191 442.292 201.392C441.966 200.592 441.3 199.955 440.292 199.481C439.374 199.037 438.382 198.711 437.315 198.503C436.249 198.296 435.331 198.163 434.561 198.104V194.949H462.109C465.901 194.949 469.633 195.541 473.307 196.726C476.98 197.881 480.179 199.451 482.904 201.436C486.607 204.072 489.51 207.523 491.613 211.789C493.716 216.055 494.768 221.076 494.768 226.852ZM483.882 226.808C483.882 222.572 483.319 218.75 482.193 215.344C481.068 211.908 479.424 208.916 477.261 206.368C475.217 203.939 472.699 202.028 469.708 200.636C466.745 199.244 463.442 198.548 459.799 198.548C458.584 198.548 457.207 198.577 455.667 198.637C454.156 198.666 453.03 198.696 452.29 198.726V247.203C452.29 249.898 453.075 251.764 454.645 252.801C456.215 253.838 458.629 254.356 461.887 254.356C465.649 254.356 468.937 253.69 471.751 252.357C474.566 251.024 476.847 249.173 478.594 246.803C480.431 244.314 481.764 241.441 482.593 238.183C483.452 234.895 483.882 231.103 483.882 226.808ZM541.779 229.074C543.112 230.555 544.089 232.184 544.711 233.961C545.363 235.709 545.689 237.753 545.689 240.093C545.689 245.662 543.63 250.254 539.513 253.868C535.395 257.482 530.285 259.289 524.183 259.289C521.369 259.289 518.555 258.859 515.741 258C512.927 257.111 510.498 256.045 508.454 254.801L506.543 258.044H502.988L502.366 236.45H505.965C506.706 239.116 507.565 241.53 508.542 243.692C509.55 245.825 510.868 247.825 512.497 249.691C514.037 251.439 515.83 252.831 517.874 253.868C519.947 254.904 522.347 255.423 525.072 255.423C527.116 255.423 528.893 255.156 530.404 254.623C531.944 254.09 533.188 253.334 534.136 252.357C535.084 251.379 535.78 250.239 536.225 248.936C536.699 247.603 536.936 246.077 536.936 244.359C536.936 241.841 536.225 239.501 534.803 237.338C533.381 235.146 531.263 233.487 528.449 232.362C526.523 231.592 524.316 230.747 521.828 229.829C519.34 228.881 517.192 227.993 515.385 227.163C511.831 225.563 509.061 223.475 507.076 220.898C505.121 218.291 504.144 214.899 504.144 210.723C504.144 208.323 504.632 206.087 505.61 204.013C506.587 201.94 507.98 200.088 509.787 198.459C511.505 196.919 513.534 195.719 515.874 194.86C518.214 193.971 520.658 193.527 523.206 193.527C526.109 193.527 528.701 193.971 530.981 194.86C533.292 195.749 535.395 196.785 537.291 197.97L539.113 194.949H542.667L543.023 215.877H539.424C538.772 213.478 538.032 211.182 537.202 208.99C536.402 206.798 535.351 204.813 534.047 203.036C532.774 201.318 531.218 199.955 529.382 198.948C527.545 197.911 525.294 197.393 522.628 197.393C519.814 197.393 517.414 198.296 515.43 200.103C513.445 201.91 512.453 204.117 512.453 206.724C512.453 209.449 513.09 211.715 514.363 213.522C515.637 215.299 517.488 216.766 519.917 217.921C522.08 218.958 524.198 219.861 526.271 220.631C528.375 221.372 530.404 222.172 532.359 223.031C534.136 223.801 535.84 224.675 537.469 225.652C539.128 226.63 540.564 227.77 541.779 229.074Z" fill="#2653F7"/>
<path d="M22.1354 170.833L25.5208 156.198L14.1666 146.354L29.1666 145.052L35 131.25L40.8333 145.052L55.8333 146.354L44.4791 156.198L47.8645 170.833L35 163.073L22.1354 170.833Z" fill="url(#paint0_radial_197_61)"/>
<path d="M502.135 170.833L505.521 156.198L494.167 146.354L509.167 145.052L515 131.25L520.833 145.052L535.833 146.354L524.479 156.198L527.865 170.833L515 163.073L502.135 170.833Z" fill="url(#paint1_radial_197_61)"/>
<path d="M442.135 170.833L445.521 156.198L434.167 146.354L449.167 145.052L455 131.25L460.833 145.052L475.833 146.354L464.479 156.198L467.865 170.833L455 163.073L442.135 170.833Z" fill="url(#paint2_radial_197_61)"/>
<path d="M382.135 170.833L385.521 156.198L374.167 146.354L389.167 145.052L395 131.25L400.833 145.052L415.833 146.354L404.479 156.198L407.865 170.833L395 163.073L382.135 170.833Z" fill="url(#paint3_radial_197_61)"/>
<path d="M322.135 170.833L325.521 156.198L314.167 146.354L329.167 145.052L335 131.25L340.833 145.052L355.833 146.354L344.479 156.198L347.865 170.833L335 163.073L322.135 170.833Z" fill="url(#paint4_radial_197_61)"/>
<path d="M262.135 170.833L265.521 156.198L254.167 146.354L269.167 145.052L275 131.25L280.833 145.052L295.833 146.354L284.479 156.198L287.865 170.833L275 163.073L262.135 170.833Z" fill="url(#paint5_radial_197_61)"/>
<path d="M202.135 170.833L205.521 156.198L194.167 146.354L209.167 145.052L215 131.25L220.833 145.052L235.833 146.354L224.479 156.198L227.865 170.833L215 163.073L202.135 170.833Z" fill="url(#paint6_radial_197_61)"/>
<path d="M142.135 170.833L145.521 156.198L134.167 146.354L149.167 145.052L155 131.25L160.833 145.052L175.833 146.354L164.479 156.198L167.865 170.833L155 163.073L142.135 170.833Z" fill="url(#paint7_radial_197_61)"/>
<path d="M82.1354 170.833L85.5208 156.198L74.1666 146.354L89.1666 145.052L95 131.25L100.833 145.052L115.833 146.354L104.479 156.198L107.865 170.833L95 163.073L82.1354 170.833Z" fill="url(#paint8_radial_197_61)"/>
<defs>
<radialGradient id="paint0_radial_197_61" cx="0" cy="0" r="1" gradientUnits="userSpaceOnUse" gradientTransform="translate(35 151.042) rotate(90) scale(19.7917 20.8333)">
<stop stop-color="white"/>
<stop offset="1" stop-color="white"/>
</radialGradient>
<radialGradient id="paint1_radial_197_61" cx="0" cy="0" r="1" gradientUnits="userSpaceOnUse" gradientTransform="translate(515 151.042) rotate(90) scale(19.7917 20.8333)">
<stop stop-color="white"/>
<stop offset="1" stop-color="white"/>
</radialGradient>
<radialGradient id="paint2_radial_197_61" cx="0" cy="0" r="1" gradientUnits="userSpaceOnUse" gradientTransform="translate(455 151.042) rotate(90) scale(19.7917 20.8333)">
<stop stop-color="white"/>
<stop offset="1" stop-color="white"/>
</radialGradient>
<radialGradient id="paint3_radial_197_61" cx="0" cy="0" r="1" gradientUnits="userSpaceOnUse" gradientTransform="translate(395 151.042) rotate(90) scale(19.7917 20.8333)">
<stop stop-color="white"/>
<stop offset="1" stop-color="white"/>
</radialGradient>
<radialGradient id="paint4_radial_197_61" cx="0" cy="0" r="1" gradientUnits="userSpaceOnUse" gradientTransform="translate(335 151.042) rotate(90) scale(19.7917 20.8333)">
<stop stop-color="white"/>
<stop offset="1" stop-color="white"/>
</radialGradient>
<radialGradient id="paint5_radial_197_61" cx="0" cy="0" r="1" gradientUnits="userSpaceOnUse" gradientTransform="translate(275 151.042) rotate(90) scale(19.7917 20.8333)">
<stop stop-color="white"/>
<stop offset="1" stop-color="white"/>
</radialGradient>
<radialGradient id="paint6_radial_197_61" cx="0" cy="0" r="1" gradientUnits="userSpaceOnUse" gradientTransform="translate(215 151.042) rotate(90) scale(19.7917 20.8333)">
<stop stop-color="white"/>
<stop offset="1" stop-color="white"/>
</radialGradient>
<radialGradient id="paint7_radial_197_61" cx="0" cy="0" r="1" gradientUnits="userSpaceOnUse" gradientTransform="translate(155 151.042) rotate(90) scale(19.7917 20.8333)">
<stop stop-color="white"/>
<stop offset="1" stop-color="white"/>
</radialGradient>
<radialGradient id="paint8_radial_197_61" cx="0" cy="0" r="1" gradientUnits="userSpaceOnUse" gradientTransform="translate(95 151.042) rotate(90) scale(19.7917 20.8333)">
<stop stop-color="white"/>
<stop offset="1" stop-color="white"/>
</radialGradient>
</defs>
</svg>
