<svg xmlns="http://www.w3.org/2000/svg" xmlns:xlink="http://www.w3.org/1999/xlink" xmlns:inkscape="http://www.inkscape.org/namespaces/inkscape" version="1.1" width="540" height="180" viewBox="0 0 540 180">
<defs>
<clipPath id="clip_1">
<path transform="matrix(1,0,0,-1,0,180)" d="M0 180H540V0H0Z"/>
</clipPath>
</defs>
<g inkscape:groupmode="layer" inkscape:label="ART">
<g clip-path="url(#clip_1)">
<path transform="matrix(1,0,0,-1,186.8954,78.1328)" d="M0 0-4.584 15.11-8.634 15.106-14.276 0C-14.276 0-16.603 14.722-16.476 15.11H-22.508C-21.96 14.075-21.327 13.04-20.568 10.626L-17.363-8.042H-13.313L-7.576 6.91H-7.492L-2.166-8.042H1.757C2.234-3.406 5.795 11.014 5.795 11.014 6.47 13.17 6.935 14.075 7.482 15.11H1.997C2.166 14.765 0 0 0 0"/>
<path transform="matrix(1,0,0,-1,205.6161,82.7399)" d="M0 0V6.836C.704 6.877 1.491 6.919 2.113 6.919 3.439 6.919 4.64 6.67 6.007 6.38L7.168 9.818H0V16.282C.415 16.364 1.119 16.364 1.533 16.364 4.64 16.364 5.055 16.24 6.919 15.619L8.079 19.265H-4.93C-4.433 18.312-4.143 17.856-4.143 15.204V1.077C-4.143-1.575-4.433-2.031-4.93-2.983H7.209L8.411 .828C6.836 .373 5.303-.083 1.699-.083 1.202-.083 .497-.042 0 0"/>
<path transform="matrix(1,0,0,-1,224.3324,68.4013)" d="M0 0C0 1.555 1.555 2.807 3.584 2.807 5.744 2.807 7.342 1.598 8.465 .82L8.68 4.923C7.515 5.182 5.571 5.83 3.455 5.83-.907 5.83-4.103 2.721-4.103-1.123-4.103-7.904 5.787-7.515 5.787-11.877 5.787-13.863 3.973-15.202 1.641-15.202-1.08-15.202-2.333-13.993-4.103-12.568L-4.319-17.103C-2.98-17.448-.648-18.226 1.944-18.226 6.219-18.226 9.89-14.814 9.89-10.927 9.89-4.449 0-4.319 0 0"/>
<path transform="matrix(1,0,0,-1,238.6978,67.2867)" d="M0 0C2.827 .704 4.241 .828 7.2 .911V-12.719C7.2-16.033 7.112-16.613 6.096-18.436H12.767C11.794-16.779 11.618-16.033 11.618-12.719V.911C14.489 .828 15.152 .746 17.891 .124L19.216 3.812H1.546Z"/>
<path transform="matrix(1,0,0,-1,268.4336,82.8234)" d="M0 0V15.288C0 17.939 .29 18.395 .788 19.348H-4.93C-4.433 18.395-4.143 17.939-4.143 15.288V1.16C-4.143-.538-4.599-1.989-5.262-2.9H7.168L8.493 1.119C7.374 .704 5.386 0 2.818 0Z"/>
<path transform="matrix(1,0,0,-1,288.8449,75.4489)" d="M0 0 2.469 6.712H2.553L4.812 0ZM5.817 9.239C5.398 10.316 5.064 11.311 5.064 11.601 5.064 11.725 5.064 11.849 5.105 11.974H-.084L.628 11.021-5.901-6.173C-6.612-8.037-7.365-9.363-7.867-10.274H-2.804C-2.971-9.901-3.013-9.694-3.013-9.238-3.013-8.534-2.678-7.54-2.427-6.836L-1.13-3.107H5.9L7.281-6.836C7.532-7.54 7.784-8.244 7.784-8.949 7.784-9.405 7.574-9.86 7.365-10.274H13.391C12.554-8.99 12.094-7.955 11.466-6.173Z"/>
<path transform="matrix(1,0,0,-1,323.7718,65.961)" d="M0 0C1.177 1.409 1.977 2.03 2.566 2.486H-3.239C-3.197 2.196-3.197 1.989-3.197 1.698-3.197 1.243-4.038 .331-4.501-.208L-10.669-7.213V-1.575C-10.669 1.077-10.375 1.533-9.87 2.486H-16.154C-15.65 1.533-15.355 1.077-15.355-1.575V-15.702C-15.355-18.354-15.65-18.81-16.154-19.762H-9.87C-10.375-18.81-10.669-18.354-10.669-15.702V-9.898L-2.314-19.762H3.365L-6.773-7.955Z"/>
<path transform="matrix(1,0,0,-1,337.3643,82.7399)" d="M0 0V6.836C.762 6.877 1.613 6.919 2.285 6.919 3.719 6.919 5.019 6.67 6.498 6.38L7.753 9.818H0V16.282C.448 16.364 1.21 16.364 1.658 16.364 5.019 16.364 5.467 16.24 7.483 15.619L8.738 19.265H-5.333C-4.795 18.312-4.481 17.856-4.481 15.204V1.077C-4.481-1.575-4.795-2.031-5.333-2.983H7.797L9.097 .828C7.394 .373 5.736-.083 1.837-.083 1.3-.083 .538-.042 0 0"/>
<path transform="matrix(1,0,0,-1,379.1405,64.102)" d="M0 0C0-1.119-.538-2.32-.911-3.397L-5.137-15.288H-5.22L-9.611-2.61C-9.902-1.864-10.233-1.036-10.233-.29-10.233 .415-10.026 .621-9.86 1.036L-16.002 1.057C-15.546 .228-14.925-.807-14.262-2.713L-9.083-17.462C-8.462-19.285-7.776-21.306-7.61-22.051H-3.701C-3.452-21.223-2.808-19.488-2.352-18.286L3.365-3.082C4.193-.844 4.649-.14 5.395 .979L-.248 1.036C-.083 .663 0 .415 0 0"/>
<path transform="matrix(1,0,0,-1,396.0822,63.475)" d="M0 0H-6.429C-5.871-.953-5.544-1.409-5.544-4.061V-18.188C-5.544-20.84-5.871-21.296-6.429-22.248H0C-.56-21.296-.885-20.84-.885-18.188V-4.061C-.885-1.409-.56-.953 0 0"/>
<path transform="matrix(1,0,0,-1,408.872,82.8234)" d="M0 0V15.288C0 17.939 .294 18.395 .801 19.348H-5.021C-4.514 18.395-4.218 17.939-4.218 15.288V1.16C-4.218-.538-4.682-1.989-5.358-2.9H7.298L8.648 1.119C7.508 .704 5.484 0 2.868 0Z"/>
<path transform="matrix(1,0,0,-1,429.4789,82.8234)" d="M0 0V15.288C0 17.939 .294 18.395 .801 19.348H-5.021C-4.514 18.395-4.218 17.939-4.218 15.288V1.16C-4.218-.538-4.682-1.989-5.358-2.9H7.298L8.648 1.119C7.508 .704 5.484 0 2.868 0Z"/>
<path transform="matrix(1,0,0,-1,449.8467,75.4489)" d="M0 0 2.535 6.712H2.621L4.942 0ZM5.972 9.239C5.543 10.316 5.199 11.311 5.199 11.601 5.199 11.725 5.199 11.849 5.242 11.974H-.087L.643 11.021-6.059-6.173C-6.79-8.037-7.564-9.363-8.079-10.274H-2.88C-3.051-9.901-3.095-9.694-3.095-9.238-3.095-8.534-2.75-7.54-2.493-6.836L-1.161-3.107H6.058L7.477-6.836C7.734-7.54 7.992-8.244 7.992-8.949 7.992-9.405 7.778-9.86 7.562-10.274H13.751C12.891-8.99 12.418-7.955 11.774-6.173Z"/>
<path transform="matrix(1,0,0,-1,483.7856,79.2183)" d="M0 0V-3.521C-1.118-3.812-2.321-4.019-3.439-4.019-8.08-4.019-11.346-.497-11.346 4.557-11.346 10.067-8.124 13.258-3.052 13.258 .515 13.258 2.665 11.435 3.138 11.103V15.702C2.922 15.702 2.665 15.66 2.407 15.66 1.589 15.66-.816 16.157-3.395 16.157-10.186 16.157-16.117 11.269-16.117 4.557-16.117-1.491-11.733-6.919-3.825-6.919-1.247-6.919 2.751-6.049 4.082-5.552V0C4.082 2.693 4.383 3.356 5.2 4.682H-1.118C-.387 3.356 0 2.693 0 0"/>
<path transform="matrix(1,0,0,-1,502.6446,82.8234)" d="M0 0C-.534 0-1.292 .041-1.827 .083V6.919C-1.07 6.961-.222 7.002 .447 7.002 1.873 7.002 3.164 6.754 4.634 6.463L5.882 9.902H-1.827V16.365C-1.381 16.448-.623 16.448-.178 16.448 3.164 16.448 3.61 16.324 5.615 15.702L6.863 19.348H-7.13C-6.595 18.395-6.284 17.939-6.284 15.288V1.16C-6.284-1.491-6.595-1.947-7.13-2.9H5.927L7.219 .912C5.526 .456 3.877 0 0 0"/>
<path transform="matrix(1,0,0,-1,449.8467,91.5733)" d="M0 0H-308.547L-324.209-28.414H-16.967Z" fill="#005394"/>
<path transform="matrix(1,0,0,-1,175.7739,105.7782)" d="M0 0H-5.122V-4.566H-6.834V6.049H-5.122V1.584H0V6.049H1.712V-4.566H0Z" fill="#ffffff"/>
<path transform="matrix(1,0,0,-1,202.4554,105.0363)" d="M0 0C0 2.497-1.755 3.952-3.61 3.952-5.493 3.952-7.234 2.497-7.234 0-7.234-2.511-5.465-3.938-3.61-3.938-1.755-3.938 0-2.497 0 0M-3.61 5.536C-.542 5.536 1.741 3.167 1.741 0 1.741-3.181-.542-5.536-3.61-5.536-6.677-5.536-8.974-3.181-8.974 0-8.974 3.167-6.677 5.536-3.61 5.536" fill="#ffffff"/>
<path transform="matrix(1,0,0,-1,225.7626,100.1994)" d="M0 0V-1.67C-.727-1.142-1.712-.842-2.553-.842-3.595-.842-4.422-1.313-4.422-2.212-4.422-3.025-3.738-3.41-2.411-3.995-.841-4.666 .585-5.35 .585-7.191 .585-9.16-.984-10.373-3.081-10.373-4.351-10.373-5.464-9.916-6.149-9.403V-7.619C-5.407-8.332-4.28-8.832-3.196-8.832-2.068-8.832-1.155-8.247-1.155-7.262-1.155-6.378-1.926-5.964-3.295-5.365-4.751-4.723-6.121-4.066-6.121-2.297-6.121-.457-4.651 .699-2.625 .699-1.598 .699-.656 .399 0 0" fill="#ffffff"/>
<path transform="matrix(1,0,0,-1,245.2345,105.4216)" d="M0 0C1.484 0 2.439 .771 2.439 2.083 2.439 3.41 1.484 4.124 0 4.124H-1.256V0ZM-2.968 5.693H-.157C2.511 5.693 4.166 4.352 4.166 2.14 4.166-.014 2.568-1.555-.086-1.555H-1.256V-4.922H-2.968Z" fill="#ffffff"/>
<path transform="matrix(1,0,0,-1,0,180)" d="M265.029 80.271H266.741V69.656009H265.029Z" fill="#ffffff"/>
<path transform="matrix(1,0,0,-1,288.0594,110.5578)" d="M0 0C-2.839 0-5.351 2.154-5.351 5.536-5.351 8.903-2.839 11.058 0 11.058 1.212 11.058 2.14 10.729 2.853 10.344V8.589C2.012 9.131 1.227 9.459 .128 9.459-1.784 9.459-3.61 7.976-3.61 5.521-3.61 3.096-1.784 1.598 .128 1.598 1.227 1.598 2.012 1.94 2.853 2.483V.713C2.14 .328 1.212 0 0 0" fill="#ffffff"/>
<path transform="matrix(1,0,0,-1,306.8665,99.7288)" d="M0 0H6.149V-1.555H1.712V-4.48H5.793V-5.949H1.712V-9.06H6.149V-10.615H0Z" fill="#ffffff"/>
<path transform="matrix(1,0,0,-1,329.1345,108.8602)" d="M0 0V.685H1.541V.1C1.541-1.041 1.056-2.383 .628-3.381H-.599C-.271-2.283 0-1.184 0 0" fill="#ffffff"/>
<path transform="matrix(1,0,0,-1,0,180)" d="M364.665 80.271H366.37803V69.656009H364.665Z" fill="#ffffff"/>
<path transform="matrix(1,0,0,-1,391.6434,110.3438)" d="M0 0H-1.598L-7.048 7.89H-7.063V0H-8.703V10.615H-7.02L-1.67 2.868H-1.656V10.615H0Z" fill="#ffffff"/>
<path transform="matrix(1,0,0,-1,412.9893,110.5578)" d="M0 0C-2.839 0-5.35 2.154-5.35 5.536-5.35 8.903-2.839 11.058 0 11.058 1.212 11.058 2.14 10.729 2.854 10.344V8.589C2.012 9.131 1.226 9.459 .129 9.459-1.783 9.459-3.609 7.976-3.609 5.521-3.609 3.096-1.783 1.598 .129 1.598 1.226 1.598 2.012 1.94 2.854 2.483V.713C2.14 .328 1.212 0 0 0" fill="#ffffff"/>
<path transform="matrix(1,0,0,-1,156.5949,46.28)" d="M0 0-40.503-69.442-54.224-45.743-58.097-52.383-44.376-76.082-42.745-78.899-38.872-72.259 3.274 0Z"/>
<path transform="matrix(1,0,0,-1,97.3892,100.5639)" d="M0 0-1.085 1.874 .024 3.775 3.897 10.415 28.457 52.523 29.484 54.284H26.21L25.183 52.523 2.266 13.232 1.18 15.107-14.985 43.028-16.612 45.838-21.502 54.284H-29.22L-24.33 45.838H-26.539-34.256L-32.63 43.028-7.674-.075-3.801 6.566-24.912 43.028H-22.703L-2.693 8.466-1.607 6.592-2.716 4.691-6.589-1.949-14.294-15.158-15.379-13.284-47.982 43.028-49.609 45.838-54.499 54.284H-62.216L-57.326 45.838H-59.535-67.253L-65.626 43.028-24.234-28.465-23.149-30.339-21.517-33.156-17.644-26.516-19.275-23.699-20.361-21.825-57.909 43.028H-55.699L-19.252-19.924-18.167-21.798-16.536-24.615-12.663-17.975-4.958-4.766-3.873-6.64 9.848-30.339 11.479-33.156 15.352-26.516 13.721-23.699Z"/>
</g>
</g>
</svg>
